<svg width="18" height="30" viewBox="0 0 18 30" fill="none" xmlns="http://www.w3.org/2000/svg">
<path fill-rule="evenodd" clip-rule="evenodd" d="M11.0903 8.78751C14.4716 8.78751 16.4641 10.1264 17.0706 12.235V1.41399C17.0706 1.01805 16.831 0.872554 16.3713 0.973222L1.13443 4.26569C0.578211 4.38819 0.367845 4.6181 0.367845 5.24116L0.367188 25.5054C0.367188 26.1282 0.577226 26.3585 1.1341 26.4805L16.3702 29.7723C16.8312 29.8756 17.0708 29.7278 17.0708 29.3332V24.9945C15.3908 24.9955 4.63151 24.9986 4.62626 24.9945C4.62626 21.9625 4.79951 20.6769 7.35511 18.891C9.41395 17.4525 10.0005 17.0516 11.2662 16.1709C12.1848 15.5322 13.1234 14.8088 13.1234 13.7299C13.1234 12.5961 12.4356 11.9378 11.0074 11.9378C9.36846 11.9378 8.99404 12.9771 8.99404 14.9594C8.93377 14.9476 4.77077 14.9594 4.77077 14.9594C4.53692 10.1446 7.74317 8.78751 11.0903 8.78751ZM15.5115 5.5223C16.3521 5.5223 16.4548 6.13846 16.4259 6.68991H15.0627C15.0627 6.99536 15.1687 7.15236 15.53 7.15236C15.8427 7.15236 15.8655 7.03248 15.8976 6.91851H16.3925C16.3521 7.15647 16.2465 7.53598 15.489 7.53598C14.8365 7.53598 14.5605 7.20393 14.5605 6.53587C14.5605 5.92711 14.8001 5.5223 15.5115 5.5223ZM13.3272 5.5223C13.9591 5.5223 14.1742 5.8583 14.1742 6.23059H13.6906C13.664 6.08263 13.6701 5.90921 13.2942 5.90921C12.922 5.90921 12.8458 6.18953 12.8458 6.49219C12.8458 6.93362 12.9437 7.16386 13.2722 7.16386C13.6908 7.16386 13.6642 6.97714 13.6908 6.77285H14.1905C14.1905 7.07337 14.0337 7.53582 13.2869 7.53582C12.6811 7.53582 12.3471 7.19867 12.3471 6.52126C12.3471 5.94895 12.5938 5.5223 13.3272 5.5223ZM10.1658 5.57272H10.6546V5.83268C10.6913 5.71608 10.7361 5.5223 11.1641 5.5223C11.6052 5.5223 11.8385 5.67601 11.8385 6.13123V7.48458H11.3324V6.21893C11.3324 6.02942 11.2593 5.91955 10.9965 5.91955C10.7852 5.91955 10.6722 5.98935 10.6722 6.25194V7.48458H10.1658V5.57272ZM8.74902 5.88014C8.39102 5.88014 8.40695 6.01776 8.39102 6.17475H7.92907V6.091C7.94007 5.76634 8.13779 5.52214 8.77382 5.52214C9.29555 5.52214 9.53843 5.68981 9.53843 6.15653V6.9704C9.53843 7.05054 9.54993 7.07649 9.56536 7.08684C9.5808 7.09718 9.61693 7.1159 9.67835 7.11245V7.48441H9.42627C9.33545 7.48441 9.26681 7.47341 9.19702 7.41528C9.14315 7.36716 9.12098 7.29802 9.09733 7.25467C8.96333 7.49164 8.80091 7.53582 8.54604 7.53582C8.05453 7.53582 7.85287 7.30197 7.85287 6.91572C7.85287 6.63835 7.9693 6.51338 8.11513 6.44128C8.35686 6.3352 8.90076 6.36459 9.00438 6.29069C9.03329 6.2659 9.05217 6.19265 9.05217 6.10496C9.05168 5.97046 8.9901 5.88014 8.74902 5.88014ZM6.40083 5.57272H6.8526V5.93056C6.92371 5.73448 6.97511 5.52247 7.35807 5.52247C7.441 5.52247 7.5218 5.52953 7.60539 5.54037V5.96045H7.29665C7.18022 5.96045 7.07265 5.98968 7.00122 6.07688C6.91763 6.18329 6.9063 6.36164 6.9063 6.45229V7.48491H6.40083V5.57272ZM5.87762 5.2336H5.73705C5.67464 5.2336 5.60863 5.23771 5.58596 5.26661C5.56839 5.29305 5.56034 5.31785 5.56034 5.36892V5.57288H5.87745V5.90198H5.56034V7.48491H5.05504V5.90198H4.80197V5.57288H5.05504V5.30685C5.05504 5.15658 5.08772 5.04097 5.20054 4.94901C5.3104 4.86164 5.48858 4.84686 5.61289 4.84686H5.87745V5.2336H5.87762Z" fill="#CC2132"/>
</svg>
