<svg width="30" height="5" viewBox="0 0 30 5" fill="none" xmlns="http://www.w3.org/2000/svg">
<path d="M19.416 0.0925952C19.3619 0.0734059 19.3056 0.0606331 19.2503 0.0449219H19.2061C19.1787 0.0527175 19.1517 0.0631517 19.1237 0.067889C18.8628 0.111964 18.6846 0.330902 18.6963 0.594274C18.7082 0.863703 18.9018 1.05476 19.1922 1.0839C19.4429 1.10897 19.6841 0.930266 19.7411 0.677207C19.7686 0.557172 19.7507 0.431309 19.6907 0.323531C19.6308 0.215753 19.533 0.13357 19.416 0.0925952ZM7.49848 1.87869C7.27219 1.71654 7.04964 1.62108 6.80117 1.5902C6.54833 1.55877 6.30366 1.5875 6.06673 1.68098C5.83288 1.77321 5.63827 1.91875 5.47987 2.11124C5.01218 2.67961 4.99664 3.53563 5.44136 4.12078C5.64813 4.39285 5.92091 4.57017 6.25076 4.65436C6.69277 4.76715 7.10811 4.70809 7.48868 4.41395L7.50217 4.63511H8.26072V1.64944H7.49854L7.49848 1.87869ZM7.37025 3.70635C7.03393 4.04042 6.47536 4.05433 6.15905 3.73441C5.83439 3.40592 5.85223 2.83276 6.19817 2.5141C6.56889 2.17265 7.16808 2.30817 7.44534 2.67283C7.46486 2.69849 7.4668 2.74131 7.46752 2.77633C7.47006 2.90016 7.46855 3.02411 7.46855 3.14806C7.46855 3.25372 7.46196 3.35998 7.47049 3.46498C7.47871 3.56609 7.43881 3.63823 7.37025 3.70635ZM27.7539 1.57784C26.847 1.57532 26.1307 2.27015 26.1356 3.14788C26.1405 4.02609 26.8393 4.70317 27.741 4.70335C28.6598 4.70365 29.3651 4.02669 29.3653 3.14428C29.3655 2.26854 28.6576 1.58036 27.7539 1.57784ZM27.7509 3.96468C27.2908 3.96474 26.9471 3.61538 26.9465 3.14692C26.9459 2.67499 27.2942 2.31831 27.7551 2.31879C28.2074 2.31927 28.5552 2.67901 28.5543 3.14542C28.5533 3.61478 28.2102 3.96468 27.7509 3.96468ZM16.3237 1.71313C15.8031 1.95809 15.5459 2.39854 15.4851 2.95089C15.4325 3.43002 15.5338 3.87665 15.8827 4.23405C16.3087 4.67043 16.8401 4.77477 17.423 4.66665C17.7677 4.60273 18.0633 4.44154 18.282 4.1919L17.8252 3.73447C17.495 4.03263 17.1182 4.17025 16.6767 3.96199C16.4255 3.84355 16.2541 3.56753 16.2766 3.34463H18.3603C18.3665 3.2593 18.3787 3.18698 18.3752 3.11538C18.3696 2.99935 18.3624 2.88217 18.3409 2.76824C18.1621 1.82107 17.1867 1.30703 16.3237 1.71313ZM16.3088 2.75198C16.3182 2.47134 16.6246 2.2265 16.9595 2.22896C17.2603 2.23112 17.5295 2.4723 17.5355 2.75198H16.3088ZM23.1 2.18584C22.6881 1.56153 21.8327 1.38841 21.2071 1.80272C21.1761 1.82317 21.1446 1.84271 21.0963 1.87366V1.64926H20.3256V4.63247H21.1285V4.49233C21.1285 3.9711 21.143 3.44921 21.122 2.92883C21.1124 2.69268 21.2161 2.56045 21.3984 2.45815C21.4776 2.41371 21.5624 2.37432 21.6495 2.34973C22.0528 2.23603 22.4008 2.41815 22.4839 2.78527C22.5029 2.8697 22.5093 2.95851 22.5098 3.0454C22.5122 3.53017 22.511 4.015 22.511 4.49976V4.64236C22.7715 4.64236 23.0102 4.64129 23.2488 4.64308C23.3086 4.6435 23.3231 4.61556 23.3225 4.56243C23.3158 3.9795 23.3171 3.39638 23.3013 2.81369C23.2953 2.59062 23.2259 2.3766 23.1 2.18584ZM11.9432 2.81681C11.8846 1.78898 10.7226 1.23232 9.85619 1.80164C9.82439 1.82257 9.79162 1.84211 9.74797 1.86934L9.73654 1.64716H8.97829V4.63547H9.77947V4.50018C9.77947 3.97176 9.79428 3.4428 9.77264 2.91527C9.7632 2.68632 9.86223 2.56051 10.0376 2.46181C10.1167 2.41719 10.201 2.37713 10.288 2.35165C10.688 2.23423 11.046 2.41599 11.128 2.77759C11.148 2.86556 11.1553 2.95797 11.1558 3.04846C11.1584 3.53676 11.157 4.02501 11.157 4.51338V4.63505H11.9577C11.9621 4.61778 11.9671 4.60752 11.9669 4.59733C11.9609 4.00372 11.977 3.40886 11.9432 2.81681ZM1.84186 1.34775C1.87269 1.06567 2.05141 0.901662 2.33779 0.894945C2.43585 0.892607 2.53398 0.894586 2.648 0.894586L2.7668 0.24515C2.39511 0.125817 1.91284 0.175529 1.58909 0.353509C1.07412 0.63649 1.01638 1.12342 1.01632 1.64477H0.246094V2.32107H1.01837V4.0045C1.01837 4.18668 1.01608 4.36898 1.02073 4.55104C1.02146 4.5815 1.05163 4.63697 1.06922 4.63733C1.3177 4.64308 1.56642 4.64117 1.8314 4.64117V2.31459H2.76208V1.64333H2.10425C2.08466 1.64333 2.06652 1.64333 2.04947 1.64321V1.64333H1.82844V1.53215C1.82663 1.48927 1.83279 1.43039 1.84186 1.34775ZM13.4254 3.76656C13.0961 3.48256 13.0605 2.93518 13.3507 2.60171C13.6965 2.20437 14.1777 2.22704 14.6847 2.67031L15.2424 2.18368C14.9223 1.69064 14.1289 1.45311 13.4758 1.64806C12.8011 1.84943 12.3143 2.46091 12.3456 3.23459C12.3719 3.88571 12.8431 4.472 13.5106 4.64956C14.2173 4.83756 15.0119 4.56789 15.3348 4.02669L14.7235 3.5728C14.3165 4.09907 13.7279 4.02747 13.4254 3.76656ZM3.93114 1.92487L3.91814 1.64992H3.15638V4.64266C3.38805 4.64266 3.6083 4.63835 3.82818 4.64464C3.92624 4.64752 3.96022 4.6233 3.95919 4.51865C3.95369 3.96468 3.95569 3.41054 3.95811 2.85651C3.95835 2.80458 3.96524 2.74179 3.99438 2.70263C4.17146 2.46433 4.40458 2.32035 4.71164 2.31963C4.80215 2.31945 4.89271 2.32958 4.9912 2.3354L5.08225 1.60297C4.6472 1.53437 4.2645 1.611 3.93114 1.92487ZM18.8179 1.76548C18.8176 2.6835 18.8177 3.60147 18.8177 4.51949C18.8177 4.53772 18.8112 4.56003 18.8193 4.57322C18.8354 4.59883 18.8593 4.63859 18.8806 4.63901C19.1225 4.64368 19.3645 4.64201 19.6147 4.64201V1.651H18.8228C18.8209 1.69388 18.8179 1.72968 18.8179 1.76548Z" fill="#414141"/>
</svg>
