<svg width="133" height="30" viewBox="0 0 133 30" fill="none" xmlns="http://www.w3.org/2000/svg">
<g clip-path="url(#clip0_249_4046)">
<path d="M29.6891 0.386726C29.1899 0.388074 28.5403 0.542507 27.686 0.843826C24.0804 2.115 20.8625 4.24284 17.9211 7.29902L15.8711 9.76887L16.6614 10.9236C18.016 12.8756 19.4331 16.1831 20.0964 18.9665C20.5035 20.5644 20.6632 21.552 20.73 23.2006C20.7414 23.4777 20.7548 23.77 20.7614 24.0907C20.7687 24.4089 20.7741 24.752 20.7773 25.1251C20.7919 27.1009 20.8156 29.3592 20.6129 29.3592H30.2763L30.8241 28.7897C31.1649 28.2911 31.2154 26.5302 31.2154 14.7642C31.2154 2.60081 31.1752 1.25942 30.801 0.835336C30.537 0.537521 30.1886 0.385513 29.6891 0.386726Z" fill="#A4CE4E"/>
<path d="M2.00646 0.38318C1.52149 0.374825 1.16865 0.50891 0.871653 0.784086C0.439221 1.18513 0.417969 1.95729 0.417969 14.713C0.417969 26.5192 0.468261 28.2876 0.809349 28.7865L1.20073 29.3558H10.8093C18.2271 29.3558 20.4631 29.2827 20.6133 29.0351C20.7202 28.8588 20.7926 27.0977 20.7775 25.1217C20.7551 22.1359 20.6402 21.0961 20.0968 18.9633C18.9076 14.2966 16.6674 10.0897 13.4417 6.95413C10.6362 4.22689 7.40724 2.06038 3.94699 0.840146C3.11077 0.545833 2.49103 0.391805 2.00632 0.38345L2.00646 0.38318Z" fill="#0192D5"/>
<path d="M15.8721 9.76562L15.2615 10.5201C14.177 11.8747 12.1984 16.3661 11.537 18.9722C10.9962 21.1027 10.8832 22.1404 10.8642 25.1387C10.8514 27.1206 10.8171 29.3569 11.0127 29.3569H20.6134C20.8159 29.3569 20.7927 27.0988 20.7777 25.1228C20.7552 22.137 20.6071 21.1059 20.0969 18.9644C19.4336 16.1807 18.0196 12.8754 16.6651 10.9235L15.8721 9.76562Z" fill="#0065A5"/>
<path d="M116.55 4.98829C115.199 4.99058 113.883 5.47342 112.943 6.3193C111.823 7.32675 111.413 8.15632 111.198 9.8156L111.026 11.1387H109.085V14.4746H111.088V19.4384C111.088 22.1669 111.161 24.4764 111.253 24.5706C111.344 24.6648 112.246 24.739 113.256 24.739H115.094V14.4745H118.099V11.1387H115.095V10.2887C115.095 9.03912 116.02 8.22923 117.27 8.38016C117.795 8.44349 118.403 8.5765 118.623 8.67676C118.92 8.81179 119.225 8.53715 119.805 7.62618L120.595 6.39112L120.032 5.95801C119.374 5.44606 117.717 4.98627 116.55 4.98829H116.55ZM104.79 5.01214C102.832 5.11631 101.856 8.13813 103.788 9.21418C104.764 9.75766 105.445 9.67774 106.308 8.93334C106.926 8.39983 107.082 8.07116 107.082 7.26543C107.082 6.13279 106.488 5.35807 105.424 5.08424C105.202 5.02764 104.993 5.00163 104.79 5.01214ZM59.2589 5.47746L57.2245 5.54942L55.1979 5.62165L52.9524 9.85563C51.7177 12.1842 50.6269 14.1706 50.5346 14.2663C50.4422 14.3617 49.2997 12.4284 47.9915 9.96801L45.6128 5.4935L43.6097 5.55764L41.6066 5.62179L41.3172 12.1654C41.1594 15.7642 40.9581 20.0659 40.8713 21.7241L40.7148 24.7391H44.6583L44.8226 21.4674C44.9123 19.6678 45.0014 17.2141 45.0182 16.0145C45.0765 11.8716 45.0991 11.8739 47.3577 15.9824L49.3531 19.607H51.4578L53.422 15.8221L55.3782 12.0371L55.5659 16.5276C55.6689 18.9975 55.8213 21.8557 55.9025 22.8788L56.0433 24.7394H60.0105L60.0027 23.5205C59.9997 22.8502 59.8354 18.8952 59.6349 14.7316C59.4343 10.5682 59.2704 6.78435 59.2671 6.31984L59.2589 5.47733V5.47746ZM88.8043 5.49363V14.9477C88.8043 20.1462 88.8766 24.4765 88.9685 24.5706C89.0604 24.6648 91.821 24.739 95.1029 24.739H101.073V21.1464H93.0605V5.49323H88.8043V5.49363ZM78.2881 7.53023V11.1148L77.2239 11.1869L76.1599 11.2672V14.3466L77.2239 14.4269L78.2881 14.5072L78.2959 17.8913C78.3104 22.3822 78.746 23.6401 80.6196 24.587C81.9159 25.2421 84.5688 25.1277 86.0578 24.3543L87.2942 23.7128L86.5431 22.4617L85.7919 21.2108L84.7043 21.6199C83.6939 21.9922 83.559 21.9875 82.9516 21.5799C82.2982 21.1407 82.2942 21.122 82.2942 17.8107V14.4749H85.5493V11.1389H82.3177L82.2393 9.40688L82.1687 7.6747L80.2283 7.6026L78.2879 7.53023H78.2881ZM68.5073 10.826C65.7834 10.8435 63.6331 12.2504 62.5374 14.7313C61.7836 16.4376 61.8148 19.5536 62.6077 21.2988C63.278 22.7738 64.6484 24.0453 66.1366 24.5869C68.3652 25.3976 72.2986 24.9424 74.0864 23.6644L74.7672 23.1834L74.0082 21.9244L73.2571 20.6735L71.9583 21.2908C70.5743 21.9511 68.7895 22.1097 67.6547 21.6679C66.8107 21.3388 65.7691 20.1831 65.7691 19.5749C65.7691 19.1286 66.0578 19.0938 70.4013 19.0938H75.0334V17.8588C75.0331 13.6555 72.3813 10.8012 68.5073 10.8262V10.826ZM68.5386 13.9454C69.3108 13.9326 70.0347 14.1954 70.5417 14.7153C70.9443 15.1279 71.2773 15.7052 71.2773 15.9983C71.2773 16.5057 71.1444 16.5276 68.523 16.5276C66.7669 16.5276 65.7688 16.4348 65.7688 16.2631C65.7688 15.657 66.5232 14.5615 67.1382 14.2745C67.5941 14.0614 68.0754 13.9531 68.5387 13.9454H68.5386ZM125.932 10.8421C122.027 10.8421 119.438 13.2991 119.164 17.2734C118.936 20.5657 120.109 22.9047 122.645 24.2178C124.162 25.0027 124.345 25.0344 126.62 24.9475C128.614 24.8713 129.243 24.7369 130.439 24.1376C131.226 23.7427 131.871 23.3347 131.871 23.2316C131.871 23.1285 131.536 22.5049 131.127 21.8444L130.384 20.6417L129.492 21.1869C128.299 21.9079 125.724 22.1289 124.719 21.5958C123.828 21.1239 123.228 20.4467 122.997 19.6712L122.825 19.0938H132.418L132.246 17.7463C131.657 13.0382 129.649 10.8422 125.932 10.8422L125.932 10.8421ZM125.736 13.9617C126.611 13.9617 127.015 14.1151 127.591 14.6673C127.995 15.0555 128.402 15.6327 128.49 15.9502C128.652 16.5254 128.638 16.5276 125.736 16.5276C122.834 16.5276 122.821 16.5254 122.982 15.9503C123.071 15.6329 123.477 15.0555 123.882 14.6673C124.457 14.1151 124.861 13.9616 125.736 13.9616V13.9617ZM106.832 11.1228L104.892 11.1949L102.951 11.2669L102.881 17.6821C102.844 21.2079 102.869 24.2391 102.936 24.4182C103.019 24.6412 103.654 24.7389 104.946 24.7389H106.832V11.1228Z" fill="black"/>
</g>
<defs>
<clipPath id="clip0_249_4046">
<rect width="132" height="29" fill="white" transform="translate(0.417969 0.371094)"/>
</clipPath>
</defs>
</svg>
