<svg width="245" height="96" viewBox="0 0 245 96" fill="none" xmlns="http://www.w3.org/2000/svg">
<path fill-rule="evenodd" clip-rule="evenodd" d="M101.574 29.5337C106.76 31.479 110.164 34.7211 110.164 34.7211C110.245 33.1811 110.65 31.56 111.218 30.1011C111.218 30.1011 109.597 27.0223 104.735 23.6992C99.4663 20.1328 93.4697 19.1615 93.4697 19.1615C92.2539 21.7539 91.4434 24.5907 90.957 27.5897C90.957 27.5884 95.3326 27.1021 101.574 29.5337ZM105.301 19.0791C110.244 23.86 112.027 28.6421 112.027 28.6421C112.926 27.1773 114.111 25.9091 115.512 24.9136C115.512 24.9136 113.729 19.2399 110.731 14.9454C107.814 10.7306 103.033 7.24663 103.033 7.24663C100.682 9.0285 98.5747 11.1359 96.8739 13.4864C96.8726 13.4877 101.736 15.5951 105.301 19.0791ZM113.972 13.1635C116.161 18.836 116.727 24.1855 116.727 24.1855C118.332 23.4085 120.059 22.9149 121.832 22.7265C121.832 22.7265 121.913 17.2149 120.697 11.6235C119.319 5.0595 117.699 0.925781 117.699 0.925781C114.781 1.4121 112.027 2.22263 109.433 3.43843C109.433 3.43843 112.432 9.27297 113.972 13.1635ZM143.308 29.5337C138.205 31.479 134.719 34.7211 134.719 34.7211C134.719 33.1811 134.313 31.56 133.747 30.1011C133.747 30.1011 135.368 27.0223 140.23 23.6992C145.497 20.1328 151.414 19.1615 151.414 19.1615C152.674 21.8272 153.521 24.6692 153.926 27.5897C153.925 27.5884 149.549 27.1021 143.308 29.5337ZM139.662 19.0791C134.719 23.86 132.936 28.6421 132.936 28.6421C132.031 27.1554 130.814 25.8832 129.368 24.9136C129.368 24.9136 131.233 19.2399 134.151 14.9454C137.148 10.7306 141.93 7.24663 141.93 7.24663C144.28 9.0285 146.307 11.1359 148.089 13.4864C148.091 13.4877 143.23 15.5951 139.662 19.0791ZM130.991 13.1635C128.721 18.836 128.154 24.1855 128.154 24.1855C126.696 23.456 124.832 22.8886 123.13 22.7265C123.13 22.7265 123.049 17.2149 124.184 11.6235C125.641 5.0595 127.262 0.925781 127.262 0.925781C130.18 1.4121 132.936 2.22263 135.527 3.43843C135.529 3.43843 132.531 9.27297 130.991 13.1635Z" fill="#818FC0"/>
<path fill-rule="evenodd" clip-rule="evenodd" d="M105.868 48.8203C112.027 45.9036 118.186 46.5508 118.186 46.5508C115.999 45.6592 114.134 44.2813 112.756 42.4981C112.756 42.4981 107.246 41.8497 103.033 42.6602C96.6308 43.9571 93.7939 46.1455 93.7939 46.1455C95.0907 48.8203 96.7916 51.2506 98.7368 53.439C98.7368 53.439 101.329 51.0087 105.868 48.8203ZM101.087 39.5802C107.408 39.256 111.704 40.877 111.704 40.877C110.894 39.4991 110.407 37.9591 110.245 36.2583C110.245 36.2583 105.302 33.4214 100.682 32.8541C94.3613 31.9625 90.6328 33.1783 90.6328 33.1783C90.7027 36.1236 91.194 39.0437 92.0918 41.8497C92.0918 41.8497 96.1431 39.8246 101.087 39.5802Z" fill="#255398"/>
<path fill-rule="evenodd" clip-rule="evenodd" d="M122.483 53.6031C131.399 53.6031 135.37 61.3829 135.37 61.3829C138.143 60.1504 140.733 58.5421 143.068 56.6034C143.068 56.6034 135.452 47.0391 122.483 47.0391C109.517 47.0391 101.898 56.6034 101.898 56.6034C104.249 58.546 106.76 60.1684 109.597 61.3829C109.597 61.3829 113.488 53.6031 122.483 53.6031Z" fill="#255398"/>
<path fill-rule="evenodd" clip-rule="evenodd" d="M139.014 48.8203C132.938 45.9037 126.696 46.5508 126.696 46.5508C128.885 45.6592 130.83 44.2813 132.207 42.4981C132.207 42.4981 137.717 41.8497 141.932 42.6602C148.332 43.9571 151.169 46.1455 151.169 46.1455C149.872 48.8203 148.172 51.2506 146.226 53.439C146.228 53.439 143.554 51.0087 139.014 48.8203ZM143.796 39.5802C137.556 39.256 133.26 40.877 133.26 40.877C133.989 39.4991 134.555 37.9591 134.718 36.2583C134.718 36.2583 139.661 33.4214 144.28 32.8541C150.602 31.9625 154.33 33.1783 154.33 33.1783C154.249 36.1759 153.682 39.0939 152.87 41.8497C152.871 41.8497 148.819 39.8246 143.796 39.5802ZM5.94522 83.1804V72.5637H10.4829C12.104 72.5637 13.4008 72.7271 14.6977 73.7795C15.9135 74.7521 16.7227 76.2921 16.7227 77.8321C16.7227 79.5356 16.0743 80.9109 14.7787 82.0482C13.4819 83.1006 12.104 83.1817 10.4829 83.1817H5.94522V83.1804ZM5.94522 85.5296H10.7261C13.0766 85.5296 15.0219 85.2054 16.8038 83.5046C18.4235 81.9645 19.3151 80.0193 19.3151 77.8308C19.3151 75.4816 18.1803 73.2121 16.3972 71.8355C14.6153 70.5386 12.589 70.2144 10.4816 70.2144H0.109375V72.5637H3.35151V93.1486H0.109375V95.4978H9.10499V93.1486H5.94522V85.5296ZM21.9101 85.1269C22.3964 81.6416 25.5575 78.7237 29.1226 78.7237C32.9321 78.7237 36.2552 81.3998 36.7416 85.2067L21.9101 85.1269ZM35.6866 90.313C34.3087 92.6649 31.9581 93.9591 29.2036 93.9591C25.3941 93.9591 22.152 90.8804 21.9101 87.0696H38.9287V86.3414C38.9287 80.9109 34.7152 76.6163 29.2049 76.6163C23.7756 76.6163 19.5609 81.1566 19.5609 86.4238C19.5609 91.691 23.9378 95.9855 29.286 95.9855C33.1765 95.9855 36.5795 93.797 38.2005 90.3117H35.6866V90.313ZM45.6548 80.669C46.5464 78.0779 48.978 77.0229 51.6515 76.9406V79.129C47.5191 79.4532 45.6548 81.8835 45.6548 85.8551V93.3107H48.8146V95.4992H40.2256V93.3107H43.3853V79.129H40.2256V76.9406H45.6548V80.669ZM60.5673 80.184C61.7021 77.8321 64.2147 76.6163 66.8071 76.6163C68.8335 76.6163 71.9932 77.7498 73.209 80.184C73.6967 81.0756 74.2627 82.7751 74.2627 85.0459V93.3107H77.3428V95.4992H68.7511V93.3107H71.9109V85.8551C71.9109 84.2367 71.8298 82.6143 71.0193 81.1566C69.9656 79.4532 67.9406 78.8871 66.1574 78.8871C64.5363 78.8871 62.8342 79.6179 61.7805 80.8324C60.5647 82.2901 60.5647 83.8301 60.5647 85.6119V93.3107H63.6434V95.4992H55.0531V93.3107H58.2142V79.129H55.0531V76.9406H60.5647V80.184H60.5673ZM87.715 93.716C83.5002 93.716 80.2594 90.3117 80.2594 86.2604C80.2594 82.209 83.5826 78.8858 87.715 78.8858C91.8487 78.8858 95.0895 82.2901 95.0895 86.3414C95.0895 90.3928 91.7676 93.716 87.715 93.716ZM87.715 95.9855C93.1442 95.9855 97.4388 91.6086 97.4388 86.178C97.4388 80.9109 93.0632 76.6163 87.715 76.6163C82.2857 76.6163 77.9088 80.9109 77.9088 86.3414C77.9088 91.691 82.2857 95.9855 87.715 95.9855ZM108.867 93.7983C104.815 93.7983 101.329 90.4765 101.329 86.3427C101.329 82.209 104.653 78.8048 108.867 78.8048C112.92 78.8048 116.323 82.1267 116.323 86.2604C116.323 90.3941 113.081 93.7983 108.867 93.7983ZM116.242 95.4978H121.671V93.3094H118.591V70.2144H113.081V72.4029H116.242V81.2351C114.783 78.3198 111.703 76.6163 108.543 76.6163C103.356 76.6163 98.9801 81.0743 98.9801 86.2604C98.9801 88.0422 99.7096 90.0699 100.601 91.6099C102.303 94.2036 105.706 95.9868 108.624 95.9868C111.866 95.9868 114.622 94.3657 116.243 91.6099V95.4978H116.242ZM154.656 95.4978H149.713L141.933 84.638H142.906C144.77 84.638 146.634 84.638 148.253 83.6654C150.037 82.5319 151.09 80.6677 151.09 78.5616C151.09 76.7798 150.522 75.1574 149.225 74.0239C147.685 72.6447 146.064 72.5637 144.2 72.5637H139.175V93.1486H142.256V95.4978H133.421V93.1486H136.663V72.5637H133.421V70.2144H144.362C146.792 70.2144 148.817 70.4576 150.845 72.0787C152.709 73.6997 153.682 75.9679 153.682 78.4793C153.682 82.7738 150.357 86.2591 145.983 86.2591L151.33 93.1486H154.655V95.4978H154.656ZM162.029 93.3107H165.19V95.4992H156.519V93.3107H159.76V79.129H156.599V76.9406H162.029V93.3107ZM159.76 70.2157H162.029V73.8618H159.76V70.2157ZM183.181 82.5319H180.993C179.696 80.3435 177.184 78.9669 174.592 78.9669C170.54 78.9669 167.298 82.2888 167.298 86.3414C167.298 90.5549 170.619 93.716 174.836 93.716C177.509 93.6349 180.103 92.176 181.155 89.7457L183.831 89.6646C182.452 93.5565 178.642 95.9868 174.594 95.9868C169.324 95.9868 164.95 91.6099 164.95 86.4251C164.95 83.749 166.002 81.3187 167.704 79.5356C169.486 77.7511 171.835 76.6176 174.511 76.6176C177.102 76.6176 179.291 77.6726 180.994 79.5356V76.9419H183.183V82.5319H183.181ZM194.69 78.8858C198.742 78.8858 202.064 82.2077 202.064 86.2604C202.064 90.3941 198.742 93.716 194.526 93.716C190.474 93.716 187.152 90.3117 187.152 86.3414C187.152 82.2077 190.556 78.8858 194.69 78.8858ZM202.063 95.4978H207.494V93.3094H204.412V79.1277H207.494V76.9392H202.063V80.9919C200.362 78.155 197.768 76.615 194.447 76.615C191.042 76.615 187.883 78.3185 186.343 80.9919C185.612 82.3711 184.803 83.5856 184.803 86.3414C184.721 88.3665 185.37 90.1509 186.26 91.691C187.961 94.3644 191.042 95.9855 194.447 95.9855C197.687 95.9855 200.442 94.4455 202.063 91.691V95.4978ZM215.435 80.669C216.245 78.0779 218.757 77.0229 221.351 76.9406V79.129C217.298 79.4532 215.435 81.8835 215.435 85.8551V93.3107H218.514V95.4992H209.925V93.3107H213.086V79.129H209.925V76.9406H215.435V80.669ZM231.887 93.7983C227.834 93.7983 224.349 90.4765 224.349 86.3427C224.349 82.209 227.673 78.8048 231.887 78.8048C235.939 78.8048 239.342 82.1267 239.342 86.2604C239.342 90.3941 236.1 93.7983 231.887 93.7983ZM239.261 95.4978H244.692V93.3094H241.613V70.2144H236.1V72.4029H239.261V81.2351C237.804 78.3198 234.724 76.6163 231.562 76.6163C226.376 76.6163 222.001 81.0743 222.001 86.2604C222.001 88.0422 222.732 90.0699 223.622 91.6099C225.323 94.2036 228.726 95.9868 231.645 95.9868C234.886 95.9868 237.64 94.3657 239.261 91.6099V95.4978Z" fill="#255398"/>
</svg>
