<svg width="275" height="285" viewBox="0 0 275 285" fill="none" xmlns="http://www.w3.org/2000/svg">
<path opacity="0.2" d="M201.296 85.7344C201.296 128.473 166.65 163.119 123.912 163.119C81.1735 163.119 46.5273 128.473 46.5273 85.7344C46.5273 42.9962 81.1735 8.3501 123.912 8.3501C166.65 8.3501 201.296 42.9962 201.296 85.7344Z" stroke="#00BBF2" stroke-width="10"/>
<g filter="url(#filter0_d_547_2094)">
<path d="M69.0664 140.329C78.4007 149.706 89.9831 156.532 102.707 160.157C115.432 163.782 128.873 164.084 141.747 161.034C154.622 157.984 166.499 151.685 176.245 142.737C185.991 133.789 193.28 122.491 197.416 109.924C201.551 97.3561 202.396 83.938 199.868 70.951C197.341 57.964 191.526 45.842 182.979 35.7427" stroke="#00BBF2" stroke-width="35"/>
</g>
<path d="M82.2422 66.2617V73.2709H95.0773L85.0641 98.1219H92.8016L103.179 72.3607V66.2617H82.2422Z" fill="#2F2B2B"/>
<path d="M113.329 66.2617L104.999 69.2657L106.775 75.5012L112.418 73.9537V98.1219H119.701V66.2617H113.329Z" fill="#2F2B2B"/>
<path d="M132.641 81.0994C137.147 81.0994 140.515 77.6403 140.515 73.362C140.515 68.9471 137.147 65.6245 132.641 65.6245C128.09 65.6245 124.722 69.0836 124.722 73.362C124.722 77.6403 128.09 81.0994 132.641 81.0994ZM128.499 93.1153L131.503 94.8903L152.076 72.0876L149.072 70.358L128.499 93.1153ZM132.596 75.8653C131.185 75.8653 130.184 74.7729 130.184 73.362C130.184 71.951 131.185 70.8587 132.596 70.8587C134.052 70.8587 135.054 71.951 135.054 73.362C135.054 74.6819 134.052 75.8653 132.596 75.8653ZM148.89 98.668C153.396 98.668 156.764 95.2089 156.764 90.9306C156.764 86.6522 153.396 83.1931 148.89 83.1931C144.339 83.1931 140.97 86.6522 140.97 90.9306C140.97 95.2089 144.339 98.668 148.89 98.668ZM148.844 93.4339C147.434 93.4339 146.432 92.3415 146.432 90.9306C146.432 89.5196 147.434 88.4273 148.844 88.4273C150.301 88.4273 151.302 89.5196 151.302 90.9306C151.302 92.2505 150.301 93.4339 148.844 93.4339Z" fill="#2F2B2B"/>
<path d="M203.474 85.7344C203.474 75.5722 201.473 65.5094 197.584 56.1207C193.695 46.732 187.995 38.2012 180.809 31.0154C173.623 23.8296 165.092 18.1296 155.704 14.2406C146.315 10.3517 136.252 8.3501 126.09 8.3501" stroke="#74DDFC" stroke-width="15"/>
<defs>
<filter id="filter0_d_547_2094" x="0.944092" y="16.4775" width="273.569" height="267.621" filterUnits="userSpaceOnUse" color-interpolation-filters="sRGB">
<feFlood flood-opacity="0" result="BackgroundImageFix"/>
<feColorMatrix in="SourceAlpha" type="matrix" values="0 0 0 0 0 0 0 0 0 0 0 0 0 0 0 0 0 0 127 0" result="hardAlpha"/>
<feOffset dy="47.76"/>
<feGaussianBlur stdDeviation="27.86"/>
<feColorMatrix type="matrix" values="0 0 0 0 0 0 0 0 0 0.733333 0 0 0 0 0.94902 0 0 0 0.15 0"/>
<feBlend mode="normal" in2="BackgroundImageFix" result="effect1_dropShadow_547_2094"/>
<feBlend mode="normal" in="SourceGraphic" in2="effect1_dropShadow_547_2094" result="shape"/>
</filter>
</defs>
</svg>
