<svg width="275" height="285" viewBox="0 0 275 285" fill="none" xmlns="http://www.w3.org/2000/svg">
<path opacity="0.2" d="M201.249 85.7344C201.249 128.473 166.603 163.119 123.865 163.119C81.1266 163.119 46.4805 128.473 46.4805 85.7344C46.4805 42.9962 81.1266 8.3501 123.865 8.3501C166.603 8.3501 201.249 42.9962 201.249 85.7344Z" stroke="#F0004C" stroke-width="10"/>
<g filter="url(#filter0_d_547_2100)">
<path d="M69.0195 140.329C78.3538 149.706 89.9362 156.532 102.661 160.157C115.385 163.782 128.826 164.084 141.701 161.034C154.575 157.984 166.452 151.685 176.198 142.737C185.944 133.789 193.233 122.491 197.369 109.924C201.505 97.3561 202.349 83.938 199.822 70.951C197.294 57.964 191.479 45.842 182.932 35.7427" stroke="#F0004C" stroke-width="35"/>
</g>
<path d="M203.427 85.7344C203.427 75.5722 201.426 65.5094 197.537 56.1207C193.648 46.732 187.948 38.2012 180.762 31.0154C173.576 23.8296 165.045 18.1296 155.657 14.2406C146.268 10.3517 136.205 8.3501 126.043 8.3501" stroke="#F681A6" stroke-width="15"/>
<path d="M96.7279 81.4775C98.5557 80.0509 99.7147 78.0003 99.7147 75.1918C99.7147 69.1291 95.0785 65.9194 89.3279 65.9194C83.5772 65.9194 78.941 69.1291 78.941 75.1918C78.941 78.0003 80.1 80.0509 81.9278 81.4775C79.2976 83.1714 77.8711 85.8908 77.8711 88.9667C77.8711 94.6728 81.9723 98.3728 89.3279 98.3728C96.6834 98.3728 100.785 94.6728 100.785 88.9667C100.785 85.8908 99.3581 83.1714 96.7279 81.4775ZM89.3279 72.6063C91.3339 72.6063 92.5821 73.899 92.5821 75.6376C92.5821 77.3762 91.3339 78.669 89.3279 78.669C87.3218 78.669 86.0736 77.3762 86.0736 75.6376C86.0736 73.899 87.3218 72.6063 89.3279 72.6063ZM89.3279 91.686C86.8314 91.686 85.0037 90.3041 85.0037 87.9414C85.0037 85.5787 86.8314 84.1968 89.3279 84.1968C91.8243 84.1968 93.652 85.5787 93.652 87.9414C93.652 90.3041 91.8243 91.686 89.3279 91.686Z" fill="#2F2B2B"/>
<path d="M102.142 66.5435V73.4087H114.713L104.906 97.7487H112.484L122.648 72.5171V66.5435H102.142Z" fill="#2F2B2B"/>
<path d="M133.09 81.0762C137.504 81.0762 140.802 77.6882 140.802 73.4978C140.802 69.1737 137.504 65.9194 133.09 65.9194C128.632 65.9194 125.334 69.3074 125.334 73.4978C125.334 77.6882 128.632 81.0762 133.09 81.0762ZM129.034 92.8451L131.976 94.5836L152.126 72.2496L149.183 70.5556L129.034 92.8451ZM133.046 75.9497C131.664 75.9497 130.683 74.8798 130.683 73.4978C130.683 72.1159 131.664 71.046 133.046 71.046C134.472 71.046 135.453 72.1159 135.453 73.4978C135.453 74.7906 134.472 75.9497 133.046 75.9497ZM149.005 98.2837C153.418 98.2837 156.717 94.8957 156.717 90.7053C156.717 86.5149 153.418 83.1269 149.005 83.1269C144.547 83.1269 141.248 86.5149 141.248 90.7053C141.248 94.8957 144.547 98.2837 149.005 98.2837ZM148.96 93.1571C147.578 93.1571 146.598 92.0872 146.598 90.7053C146.598 89.3233 147.578 88.2534 148.96 88.2534C150.387 88.2534 151.368 89.3233 151.368 90.7053C151.368 91.9981 150.387 93.1571 148.96 93.1571Z" fill="#2F2B2B"/>
<defs>
<filter id="filter0_d_547_2100" x="0.897217" y="16.4775" width="273.569" height="267.621" filterUnits="userSpaceOnUse" color-interpolation-filters="sRGB">
<feFlood flood-opacity="0" result="BackgroundImageFix"/>
<feColorMatrix in="SourceAlpha" type="matrix" values="0 0 0 0 0 0 0 0 0 0 0 0 0 0 0 0 0 0 127 0" result="hardAlpha"/>
<feOffset dy="47.76"/>
<feGaussianBlur stdDeviation="27.86"/>
<feColorMatrix type="matrix" values="0 0 0 0 0 0 0 0 0 0.733333 0 0 0 0 0.94902 0 0 0 0.15 0"/>
<feBlend mode="normal" in2="BackgroundImageFix" result="effect1_dropShadow_547_2100"/>
<feBlend mode="normal" in="SourceGraphic" in2="effect1_dropShadow_547_2100" result="shape"/>
</filter>
</defs>
</svg>
