<svg width="234" height="281" viewBox="0 0 234 281" fill="none" xmlns="http://www.w3.org/2000/svg">
<path opacity="0.2" d="M160.138 84.7009C160.138 127.326 125.583 161.881 82.9577 161.881C40.3322 161.881 5.77734 127.326 5.77734 84.7009C5.77734 42.0753 40.3322 7.52051 82.9577 7.52051C125.583 7.52051 160.138 42.0753 160.138 84.7009Z" stroke="#FF9900" stroke-width="10"/>
<g filter="url(#filter0_d_547_2089)">
<path d="M100.75 159.802C113.59 156.76 125.436 150.477 135.157 141.553C144.877 132.628 152.147 121.361 156.272 108.826C160.396 96.2918 161.239 82.9091 158.718 69.9563C156.197 57.0036 150.397 44.9135 141.873 34.8408" stroke="#FF9900" stroke-width="35"/>
</g>
<path d="M43.8685 97.0549H65.4763V90.0641H54.8086L60.0744 84.753C62.9796 81.8477 65.0224 78.5793 65.0224 74.7662C65.0224 68.3655 59.9382 64.6432 54.2639 64.6432C49.8606 64.6432 45.5935 66.8675 43.5508 71.5886L49.679 75.1747C50.5415 73.1774 52.1304 71.7247 54.3547 71.7247C56.4882 71.7247 57.7593 73.0866 57.7593 75.0839C57.7593 76.9451 56.3974 78.8063 54.5363 80.7129L43.8685 91.7891V97.0549Z" fill="#2F2B2B"/>
<path d="M71.1599 101.594L89.3177 60.7393H86.594L68.4362 101.594H71.1599Z" fill="#2F2B2B"/>
<path d="M107.5 78.1708L112.992 71.18V65.2787H92.5648V72.0879H104.186L98.4207 79.3964L101.19 83.5273H102.688C105.684 83.5273 107 85.1161 107 87.0681C107 89.0201 105.684 90.6089 102.688 90.6089C99.9187 90.6089 98.5569 89.3378 97.8306 87.2497L91.5661 90.8812C93.5181 95.5569 97.876 97.6904 102.688 97.6904C108.816 97.6904 114.263 94.0588 114.263 87.0681C114.263 82.6648 111.404 79.5326 107.5 78.1708Z" fill="#2F2B2B"/>
<path d="M162.313 84.7009C162.313 74.5654 160.317 64.5292 156.438 55.1652C152.56 45.8013 146.874 37.293 139.708 30.1261C132.541 22.9593 124.032 17.2742 114.668 13.3955C105.305 9.51684 95.2683 7.52051 85.1328 7.52051" stroke="#FFC369" stroke-width="15"/>
<defs>
<filter id="filter0_d_547_2089" x="40.9949" y="15.5756" width="192.366" height="264.735" filterUnits="userSpaceOnUse" color-interpolation-filters="sRGB">
<feFlood flood-opacity="0" result="BackgroundImageFix"/>
<feColorMatrix in="SourceAlpha" type="matrix" values="0 0 0 0 0 0 0 0 0 0 0 0 0 0 0 0 0 0 127 0" result="hardAlpha"/>
<feOffset dy="47.76"/>
<feGaussianBlur stdDeviation="27.86"/>
<feColorMatrix type="matrix" values="0 0 0 0 1 0 0 0 0 0.653083 0 0 0 0 0.245833 0 0 0 0.25 0"/>
<feBlend mode="normal" in2="BackgroundImageFix" result="effect1_dropShadow_547_2089"/>
<feBlend mode="normal" in="SourceGraphic" in2="effect1_dropShadow_547_2089" result="shape"/>
</filter>
</defs>
</svg>
