<svg width="65" height="65" viewBox="0 0 65 65" fill="none" xmlns="http://www.w3.org/2000/svg">
<path d="M20.5445 29.5846L20.5266 23.5053C20.5044 11.3042 24.5738 5.20361 32.7349 5.20361C40.896 5.20361 44.9596 11.3042 44.9256 23.5053V29.5846M20.5445 29.5846H44.9941C48.2074 29.5846 50.8399 32.071 51.0726 35.2249L51.0893 35.697L51.0378 53.9827C51.0283 57.3423 48.3022 60.0608 44.9426 60.0608H20.5445C17.1781 60.0608 14.4492 57.3318 14.4492 53.9655V35.6798C14.4492 32.3135 17.1781 29.5846 20.5445 29.5846Z" stroke="white" stroke-linecap="round" stroke-linejoin="round"/>
<path d="M32.7355 49.3941C35.2602 49.3941 37.3069 47.3474 37.3069 44.8226C37.3069 42.2979 35.2602 40.2512 32.7355 40.2512C30.2108 40.2512 28.1641 42.2979 28.1641 44.8226C28.1641 47.3474 30.2108 49.3941 32.7355 49.3941Z" fill="#F0004C"/>
</svg>
