<svg width="65" height="65" viewBox="0 0 65 65" fill="none" xmlns="http://www.w3.org/2000/svg">
<path d="M7.85156 32.6321L32.2325 44.8226L56.6653 32.6321" stroke="#F0004C" stroke-linecap="round" stroke-linejoin="round"/>
<path d="M7.85156 44.8228L32.2325 57.0132L56.6653 44.8228" stroke="white" stroke-linecap="round" stroke-linejoin="round"/>
<path fill-rule="evenodd" clip-rule="evenodd" d="M7.85156 20.9202L32.2569 32.6322L56.6653 20.9202L32.2569 8.25122L7.85156 20.9202Z" stroke="white" stroke-linecap="round" stroke-linejoin="round"/>
<path d="M32.1453 15.6317C32.0536 15.8245 32.0039 16.0309 32.0039 16.2455C32.0039 16.2723 32.0047 16.2991 32.0062 16.3257C31.988 16.4778 31.974 16.6512 31.9635 16.8392L31.9635 16.8397C31.9077 17.842 31.9524 19.2613 31.9982 20.1096C30.7707 19.8669 26.8125 19.9413 24.9841 20.009C24.8078 20.009 24.6353 20.0207 24.4682 20.0431C23.5128 19.7405 22.8477 19.0648 22.8477 18.2798C22.8477 17.2125 24.0775 16.3472 25.5945 16.3472C26.03 16.3472 26.4419 16.4185 26.8077 16.5454C26.7464 16.3849 26.7136 16.2162 26.7136 16.042C26.7136 14.9747 27.9434 14.1094 29.4605 14.1094C30.7774 14.1094 31.8779 14.7614 32.1453 15.6317Z" fill="#EBEBEB"/>
<path d="M32.465 15.6698C32.2208 16.3208 32.2954 18.857 32.3632 20.0437C33.8282 20.2064 37.5857 20.281 39.2813 20.2471L39.5865 18.5179L37.45 17.1956L37.5518 16.687C35.9579 16.0767 32.7091 15.0188 32.465 15.6698Z" fill="#B0ADAD"/>
<path d="M37.8569 16.0767C37.8569 17.1441 36.6271 18.0093 35.11 18.0093C33.593 18.0093 32.3631 17.1441 32.3631 16.0767C32.3631 15.0093 33.593 14.144 35.11 14.144C36.6271 14.144 37.8569 15.0093 37.8569 16.0767Z" fill="#B0ADAD"/>
<path d="M41.926 18.4162C41.926 19.4274 40.7417 20.2471 39.2808 20.2471C37.82 20.2471 36.6357 19.4274 36.6357 18.4162C36.6357 17.405 37.82 16.5853 39.2808 16.5853C40.7417 16.5853 41.926 17.405 41.926 18.4162Z" fill="#B0ADAD"/>
<path fill-rule="evenodd" clip-rule="evenodd" d="M38.6683 20.5694C37.6102 20.488 32.7676 20.5694 32.7676 20.5694C32.5235 21.2204 32.5301 23.6548 32.5641 24.7398L32.5679 24.744C32.5656 24.7762 32.5645 24.8087 32.5645 24.8413C32.5645 25.9087 33.7943 26.774 35.3113 26.774C36.8284 26.774 38.0582 25.9087 38.0582 24.8413C38.0582 24.6671 38.0254 24.4983 37.964 24.3378C38.3302 24.465 38.7425 24.5364 39.1785 24.5364C40.6956 24.5364 41.9254 23.6712 41.9254 22.6038C41.9254 21.6903 41.0246 20.9248 39.8139 20.7231C39.5379 20.666 39.1502 20.6064 38.6683 20.5694Z" fill="#EBEBEB"/>
<path fill-rule="evenodd" clip-rule="evenodd" d="M25.3398 20.3215C23.8231 20.3218 22.5938 21.1869 22.5938 22.2541C22.5938 23.3215 23.8236 24.1868 25.3406 24.1868C25.9984 24.1868 26.6021 24.0241 27.0751 23.7529C26.941 23.9805 26.8671 24.2301 26.8671 24.4919C26.8671 25.5593 28.0969 26.4245 29.6139 26.4245C31.131 26.4245 32.3608 25.5593 32.3608 24.4919L32.3608 24.4859C32.4148 24.1972 32.3948 22.9698 32.3765 21.8423C32.3679 21.3108 32.3596 20.8015 32.3596 20.4232C31.1388 20.1791 27.1711 20.2537 25.3398 20.3215L25.3398 20.3215Z" fill="#B0ADAD"/>
</svg>
