<svg width="65" height="65" viewBox="0 0 65 65" fill="none" xmlns="http://www.w3.org/2000/svg">
<path d="M26.138 32.6322C31.1875 32.6322 35.2809 28.5388 35.2809 23.4893V17.3941C35.2809 12.3446 31.1875 8.25122 26.138 8.25122C21.0886 8.25122 16.9952 12.3446 16.9952 17.3941V23.4893C16.9952 28.5388 21.0886 32.6322 26.138 32.6322ZM26.138 32.6322C36.2369 32.6322 47.4714 38.9877 47.4714 48.6987V50.9179C47.4714 52.601 46.1069 53.9655 44.4237 53.9655H7.85231C6.16915 53.9655 4.80469 52.601 4.80469 50.9179V48.6987C4.80469 38.9877 16.0391 32.6322 26.138 32.6322Z" stroke="white" stroke-linecap="round" stroke-linejoin="round"/>
<path fill-rule="evenodd" clip-rule="evenodd" d="M38.3889 8.79321C41.9082 10.0653 44.4234 13.436 44.4234 17.3941V20.4417C44.4234 24.3947 41.8403 28.3087 38.3281 29.5846C40.383 26.7845 41.409 23.2281 41.4061 18.9154C41.4032 14.6027 40.3975 11.2287 38.3889 8.79321ZM53.5662 53.9655H56.6138C58.297 53.9655 59.6615 52.6011 59.6615 50.9179C59.6615 50.1782 59.6615 49.4385 59.6615 48.6987C59.6615 42.0858 54.4517 37.0288 47.9386 34.4753C47.9386 34.4753 56.6138 41.7751 53.5662 53.9655Z" fill="#F0004C"/>
</svg>
