<svg width="661" height="660" viewBox="0 0 661 660" fill="none" xmlns="http://www.w3.org/2000/svg">
<path fill-rule="evenodd" clip-rule="evenodd" d="M0.28125 0.957031H660.281V659.957H0.28125V0.957031Z" fill="white"/>
<path fill-rule="evenodd" clip-rule="evenodd" d="M88.7412 85.4883L9.98535 575.427H170.14L188.404 425.802L330.282 575.427L472.159 425.802L490.423 575.427H650.578L571.826 85.4883L330.282 336.724L88.7412 85.4883Z" fill="black"/>
<path fill-rule="evenodd" clip-rule="evenodd" d="M333.883 190.203C355.845 152.442 379.111 114.88 396.258 91.0469H294.476C244.92 160.398 198.631 243.513 185.496 299.869C182.05 312.514 180.307 325.561 180.313 338.666C180.313 420.684 247.468 487.176 330.302 487.176C413.142 487.176 480.291 420.684 480.291 338.666C480.291 257.835 415.07 192.087 333.883 190.203ZM330.302 405.172C293.432 405.172 263.547 375.398 263.547 338.666C263.547 301.941 293.435 272.163 330.302 272.163C367.171 272.163 397.06 301.941 397.06 338.666C397.06 375.398 367.171 405.172 330.302 405.172Z" fill="#CC2229"/>
</svg>
