<svg width="117" height="85" viewBox="0 0 117 85" fill="none" xmlns="http://www.w3.org/2000/svg">
<path d="M1.96094 54.9452C8.32803 50.5406 9.31977 48.3641 10.916 41.3891C11.5383 38.6701 11.8679 42.7777 11.9954 43.5146C12.6579 47.3413 13.3443 51.1521 13.9365 54.9919C14.0368 55.6422 15.299 62.3966 15.8568 58.9836C17.1167 51.2749 17.4181 40.7952 15.8545 33.0929C14.038 24.1449 17.155 51.3202 18.2449 60.3873C18.4415 62.0222 19.1751 65.4284 19.5884 61.77C20.3328 55.1818 20.0114 48.4035 20.0563 41.7885C20.0802 38.2805 19.2856 32.7304 20.962 29.4633C21.611 28.1986 24.2898 37.6364 24.4482 38.264C26.3292 45.7162 27.6574 53.9119 30.7348 60.9806C30.8756 61.304 31.8424 63.3304 32.2543 61.9148C33.8606 56.3944 33.1176 49.488 33.2087 43.8089C33.3761 33.3715 32.9152 22.9791 32.6063 12.5509C32.528 9.90552 31.4574 -5.67256 33.9685 4.63067C36.7795 16.1649 38.6676 28.0543 40.9407 39.7075C42.4148 47.2647 43.7528 54.8482 45.226 62.4054C45.5922 64.2841 45.7543 67.4842 46.9446 69.1226C47.8977 70.4345 48.1324 66.042 48.2279 64.4186C48.4653 60.3845 48.285 56.3187 48.0889 52.2873C47.5975 42.1857 46.5 32.1125 45.8143 22.0219C44.8032 7.14106 48.5186 51.9164 52.6754 66.2311C53.3519 68.5608 54.6909 74.7958 55.946 72.7243C59.1282 67.4727 56.6166 60.4267 56.5807 54.2726C56.5526 49.4488 56.2528 44.6159 56.5437 39.8009C56.6778 37.5798 55.65 33.0832 57.85 33.2564C60.3461 33.4529 60.1876 37.7485 60.9633 40.1489C62.482 44.8484 63.5468 49.6862 64.7111 54.4875C66.7944 63.0783 67.5956 73.6293 71.1692 81.9264C72.6791 85.4324 73.3009 79.3758 73.3118 78.6381C73.522 64.4401 65.8836 22.3374 67.9146 36.3885C68.8048 42.5464 70.7152 48.589 72.0378 54.6603C72.3226 55.9676 75.1264 69.6388 76.7099 62.3259C78.307 54.9502 78.0534 46.9145 78.0534 39.3898C78.0534 33.9315 78.704 34.822 80.8075 39.5346C82.6635 43.6923 85.1579 49.4639 90.7235 48.9917C95.1432 48.6167 99.3651 43.3831 102.236 40.6137C106.826 36.1867 111.304 31.6475 115.912 27.2397" stroke="white" stroke-width="2" stroke-linecap="round"/>
</svg>
