<svg width="28" height="20" viewBox="0 0 28 20" fill="none" xmlns="http://www.w3.org/2000/svg">
<path opacity="0.4" d="M8.24706 11.7154L2.54408 12.2197C1.26423 12.2197 0.226563 11.1719 0.226563 9.87963C0.226563 8.58731 1.26423 7.53954 2.54408 7.53954L8.24706 8.0439C9.25109 8.0439 10.0651 8.86582 10.0651 9.87963C10.0651 10.8951 9.25109 11.7154 8.24706 11.7154" fill="#1B1B1E"/>
<path d="M27.3971 11.6227C27.308 11.7127 26.975 12.0931 26.6622 12.409C24.8374 14.3873 20.0729 17.6224 17.5805 18.6124C17.2021 18.7704 16.2451 19.1066 15.7322 19.1304C15.2428 19.1304 14.7752 19.0166 14.3296 18.7924C13.7729 18.4783 13.3289 17.9824 13.0834 17.3982C12.927 16.9941 12.6814 15.7799 12.6814 15.7578C12.4375 14.4315 12.3047 12.2748 12.3047 9.89056C12.3047 7.62179 12.4375 5.5534 12.6377 4.20505C12.6595 4.18127 12.9051 2.67498 13.1725 2.15874C13.6619 1.21455 14.6188 0.630372 15.6431 0.630372H15.7322C16.3999 0.652448 17.8025 1.23832 17.8025 1.2587C20.162 2.24874 24.8139 5.32754 26.6841 7.37385C26.6841 7.37385 27.2121 7.90029 27.4409 8.22804C27.7974 8.70013 27.9757 9.28431 27.9757 9.86848C27.9757 10.5206 27.7755 11.1268 27.3971 11.6227" fill="#1B1B1E"/>
</svg>
