<svg width="19" height="11" viewBox="0 0 19 11" fill="none" xmlns="http://www.w3.org/2000/svg">
<path opacity="0.4" d="M5.46811 6.42258L1.76888 6.71338C0.938708 6.71338 0.265625 6.10925 0.265625 5.36413C0.265625 4.61902 0.938708 4.01489 1.76888 4.01489L5.46811 4.30569C6.11937 4.30569 6.64737 4.77959 6.64737 5.36413C6.64737 5.94966 6.11937 6.42258 5.46811 6.42258" fill="white"/>
<path d="M17.8913 6.36901C17.8334 6.4209 17.6174 6.64023 17.4145 6.82235C16.2309 7.96304 13.1404 9.82828 11.5237 10.3991C11.2783 10.4902 10.6575 10.684 10.3248 10.6978C10.0074 10.6978 9.70409 10.6322 9.415 10.5029C9.05391 10.3218 8.76592 10.0359 8.60665 9.69904C8.50519 9.46601 8.34592 8.76593 8.34592 8.7532C8.18774 7.9885 8.10156 6.745 8.10156 5.3703C8.10156 4.06217 8.18774 2.86959 8.31756 2.09216C8.33174 2.07845 8.49101 1.20996 8.66446 0.912307C8.98192 0.367909 9.60264 0.0310879 10.267 0.0310879H10.3248C10.7579 0.0438166 11.6677 0.381618 11.6677 0.393367C13.1982 0.964201 16.2156 2.73937 17.4287 3.91922C17.4287 3.91922 17.7713 4.22275 17.9196 4.41173C18.1509 4.68392 18.2665 5.02075 18.2665 5.35757C18.2665 5.73355 18.1367 6.0831 17.8913 6.36901" fill="white"/>
</svg>
