<svg width="33" height="32" viewBox="0 0 33 32" fill="none" xmlns="http://www.w3.org/2000/svg">
<path fill-rule="evenodd" clip-rule="evenodd" d="M4.26172 8C4.26172 7.44772 4.70943 7 5.26172 7H27.2617C27.814 7 28.2617 7.44772 28.2617 8C28.2617 8.55228 27.814 9 27.2617 9H5.26172C4.70943 9 4.26172 8.55228 4.26172 8ZM4.26172 16C4.26172 15.4477 4.70943 15 5.26172 15H27.2617C27.814 15 28.2617 15.4477 28.2617 16C28.2617 16.5523 27.814 17 27.2617 17H5.26172C4.70943 17 4.26172 16.5523 4.26172 16ZM5.26172 23C4.70943 23 4.26172 23.4477 4.26172 24C4.26172 24.5523 4.70943 25 5.26172 25H27.2617C27.814 25 28.2617 24.5523 28.2617 24C28.2617 23.4477 27.814 23 27.2617 23H5.26172Z" fill="#1B1B1E"/>
</svg>
