<svg width="44" height="95" viewBox="0 0 44 95" fill="none" xmlns="http://www.w3.org/2000/svg">
<path d="M21.7672 2.10029C21.6834 10.2115 21.8658 18.0484 19.935 25.9382C18.9417 29.9971 18.1759 34.0046 16.2272 37.745C13.4488 43.0778 8.83424 49.5301 2.7636 51.4305C1.87664 51.7082 -0.134959 51.8954 1.88677 51.3695C4.08023 50.7989 6.54192 50.3854 8.8084 50.2838C12.0969 50.1365 15.0161 52.3653 17.12 54.6632C20.8818 58.7719 22.6725 64.1001 23.9936 69.4374C25.3151 74.7766 25.6655 80.1812 26.4784 85.6008C26.7717 87.5559 27.038 89.5166 27.2386 91.4836C27.2543 91.6372 27.4551 93.8391 27.1929 93.3821C25.7294 90.8317 25.618 86.8909 25.3233 84.066C24.8518 79.5459 25.0835 75.0175 25.5635 70.5063C25.8983 67.3593 26.1971 63.9305 27.4361 60.9692C28.9128 57.4396 32.1518 55.1875 35.2007 52.8136C35.2007 52.8136 43.8595 49.2761 42.4233 47.6776C39.1116 43.9919 28.638 41.1173 26.6027 36.5175C24.2793 31.2665 23.7679 24.9282 23.5826 19.2586C23.3861 13.2454 22.9649 7.20897 23.3867 1.20825" stroke="#1B1B1E" stroke-width="1.90596" stroke-linecap="round"/>
</svg>
