<svg width="99" height="82" viewBox="0 0 99 82" fill="none" xmlns="http://www.w3.org/2000/svg">
<path d="M98.6857 54.1325C83.6709 54.1325 71.6953 42.0662 71.6953 27.1875H87.0277C93.4237 27.1875 98.6404 32.4041 98.6404 38.8002V54.1325H98.6857Z" fill="url(#paint0_radial_249_4041)"/>
<path d="M85.2129 40.6582C85.2129 18.2948 67.0681 0.195312 44.75 0.195312V29.227C44.75 35.487 49.8759 40.7036 56.2266 40.7036H85.2129V40.6582Z" fill="url(#paint1_radial_249_4041)"/>
<path d="M82.8997 27.1875H71.6953C71.6953 32.0866 73.0108 36.7135 75.2789 40.66H85.2132C85.2132 35.9424 84.3967 31.4515 82.8997 27.1875Z" fill="url(#paint2_radial_249_4041)"/>
<path d="M67.0685 58.2592C67.0685 57.1252 66.6603 56.1726 65.8891 55.3561C65.2541 54.721 64.3922 54.3127 63.5303 54.1767L63.1674 54.1313V65.0635V72.14C63.1674 73.1833 64.0746 74.0906 65.118 74.0906C66.1613 74.0906 67.0685 73.1833 67.0685 72.14V65.4264C67.0685 65.3811 67.0685 58.2592 67.0685 58.2592ZM59.1755 54.222H56.0455C56.0455 54.222 56.0456 54.222 56.0002 54.222H54.8661C52.0991 54.222 49.7402 55.1746 47.7897 57.1252C45.7937 59.0758 44.8411 61.3892 44.8411 64.1563V74.1359L45.204 74.0906C46.1113 73.9545 46.8371 73.637 47.5628 72.9112C48.3794 72.0947 48.7423 71.142 48.7423 70.008V64.1563V64.1109C48.7423 62.3872 49.332 60.9356 50.5114 59.7562C51.6908 58.5314 53.1877 57.9417 54.8661 57.9417H59.1755C60.1735 57.9417 60.99 57.1252 60.99 56.1272C60.99 54.9932 60.1735 54.222 59.1755 54.222ZM85.3494 73.7277C85.2133 72.9112 84.8958 72.1854 84.3061 71.5503C83.5349 70.7792 82.6731 70.4163 81.5844 70.4163H79.6338C77.91 70.4163 76.4585 69.7812 75.2791 68.6018C74.0996 67.377 73.5099 65.8801 73.5099 64.247V60.2098C73.5099 60.1644 73.5099 60.0284 73.5099 59.8923V56.0365C73.5099 54.9932 72.6027 54.0859 71.5594 54.0859C70.5614 54.0859 69.7449 54.9025 69.6088 55.9004V56.0819V60.8449C69.6088 60.8449 69.6088 60.8449 69.6088 60.8902V64.0656C69.6088 66.8327 70.6068 69.1461 72.5573 71.0967C74.5533 73.0473 76.8667 73.9999 79.6338 73.9999H85.4401L85.3494 73.7277ZM17.1249 57.1252C15.129 55.1746 12.7702 54.222 10.0484 54.222C7.28136 54.222 4.9679 55.1746 2.97197 57.1252C0.976041 59.0758 0.0234375 61.4346 0.0234375 64.1563C0.0234375 66.9234 1.0214 69.2368 2.97197 71.1874C4.9679 73.138 7.28136 74.0906 10.0484 74.0906H20.1642V64.1563C20.1188 61.4346 19.1209 59.0758 17.1249 57.1252ZM16.1723 70.4163H10.0484C8.32469 70.4163 6.87311 69.7812 5.69369 68.6018C4.51428 67.4224 3.92457 65.9254 3.92457 64.247V64.2017C3.92457 62.4779 4.51428 61.0263 5.69369 59.7562C6.87311 58.5314 8.37005 57.851 10.0484 57.851C10.0484 57.851 10.0484 57.851 10.0938 57.851C11.8176 57.851 13.2692 58.4861 14.4486 59.7562C15.628 60.981 16.2177 62.4779 16.2177 64.2017V70.4616H16.1723V70.4163ZM39.7606 57.1252C37.7646 55.1746 35.4058 54.222 32.6841 54.222C29.917 54.222 27.6036 55.1746 25.6076 57.1252C23.6117 59.0758 22.6591 61.4346 22.6591 64.1563V81.1217L23.022 81.0763C23.9292 80.9403 24.655 80.6227 25.3808 79.8969C26.1973 79.0804 26.5602 78.1278 26.5602 76.9938V73.9999H32.6841C35.4512 73.9999 37.81 73.0473 39.7606 71.0967C41.7565 69.1461 42.7091 66.8327 42.7091 64.0656C42.7091 61.4346 41.7111 59.0758 39.7606 57.1252ZM38.808 64.1563C38.808 65.8801 38.2183 67.3317 37.0389 68.6018C35.8594 69.8266 34.3625 70.4163 32.6841 70.4163H26.4695V64.2017C26.4695 64.2017 26.4695 64.2017 26.4695 64.1563C26.4695 62.4325 27.0592 60.981 28.2386 59.8015C29.3727 58.6221 30.7335 58.0324 32.2758 57.9871V58.0324L32.6387 57.9871C34.3625 57.9871 35.8141 58.6221 36.9935 59.8923C38.1275 60.981 38.7173 62.4325 38.808 64.1563Z" fill="#69614E"/>
<defs>
<radialGradient id="paint0_radial_249_4041" cx="0" cy="0" r="1" gradientUnits="userSpaceOnUse" gradientTransform="translate(71.5061 27.2198) scale(38.7041 38.7002)">
<stop stop-color="#FCC200"/>
<stop offset="1" stop-color="#EE7D00"/>
</radialGradient>
<radialGradient id="paint1_radial_249_4041" cx="0" cy="0" r="1" gradientUnits="userSpaceOnUse" gradientTransform="translate(44.5022 0.0917894) scale(57.4766 57.4766)">
<stop stop-color="#C7D300"/>
<stop offset="1" stop-color="#799D1A"/>
</radialGradient>
<radialGradient id="paint2_radial_249_4041" cx="0" cy="0" r="1" gradientUnits="userSpaceOnUse" gradientTransform="translate(71.6163 27.1837) scale(19.1453 19.1453)">
<stop stop-color="#FCC200"/>
<stop offset="1" stop-color="#799D1A"/>
</radialGradient>
</defs>
</svg>
