<svg fill="none" height="65" viewBox="0 0 94 65" width="94" xmlns="http://www.w3.org/2000/svg"><g clip-rule="evenodd" fill-rule="evenodd"><path d="m87.4738 43.3772v-2.0034h-.7129v-.3108h1.8943v.3108h-.7145v2.0034zm4.2675 0h-.4659v-1.8055h-.0063c-.2544.6442-.5192 1.2262-.7804 1.8055h-.2517c-.2485-.5793-.4986-1.1613-.7397-1.8055h-.0074v1.8055h-.3731v-2.3147h.5752c.2379.5688.6215 1.4737.7112 1.7713h.0063c.1093-.3103.5245-1.2025.7904-1.7713h.5409v2.3147zm-48.2907 4.3008c.3879.0691 1.7808.4759 1.7808 1.4642v15.8485h4.7113v-17.8778h-6.4921zm-37.0446-.5651v.5646c.57142.1187 1.8082.4637 1.30695 1.5797l-7.02545 15.7335h3.7119l2.19971-4.9043h7.78259l1.9232 4.9043h4.8812l-6.9722-17.8778zm1.18928 10.7526 3.15682-7.0333 2.7574 7.0333zm71.04062-10.7526v.5646c.5688.1187 1.8087.4637 1.3059 1.5797l-7.0239 15.733h3.713l2.196-4.9044h7.7826l1.9248 4.9044h4.8838l-6.9758-17.8778h-7.8064zm1.1893 10.7526 3.1563-7.0333 2.7579 7.0333zm-13.7217 7.1252 7.4497-17.8778h-3.5235l-5.4637 13.1096-5.1982-13.1096h-6.6202v.5646c.7645.1461 1.623.4759 2.0145 1.4641l6.2841 15.8486h5.0573zm-32.6552 0 7.4518-17.8778h-3.5252l-5.4626 13.1096-5.1998-13.1096h-6.6197v.5646c.7661.1461 1.622.4759 2.0156 1.4641l6.2809 15.8486h5.059z" fill="#1e71b8"/><path d="m59.4401 32.5544-3.1288-32.226275h-.0021l-3.1764 32.762375c2.0573-.2264 4.1615-.4058 6.3073-.5361z" fill="#f6d330"/><path d="m67.0936 32.3205.0106-31.99206-10.7917-.004221v.004221l3.1289 32.22636c2.4988-.1473 5.0505-.2296 7.6522-.2343z" fill="#82ba5d"/><path d="m53.1337 33.0908 3.1763-32.76236v-.004221l-28.2162.004221.0142 38.90136c6.6297-2.8977 15.2597-5.0568 25.0257-6.139z" fill="#1e71b8"/></g></svg>