<svg width="83" height="68" viewBox="0 0 83 68" fill="none" xmlns="http://www.w3.org/2000/svg">
<path d="M16.2735 59.5559V53.9445C19.7479 53.9445 21.028 53.7605 21.668 58.0841H22.0337V53.3006H12.4334V53.9445H14.0792V66.3632H12.2505V67.0071H22.1252V61.9476H21.668C21.2109 65.8112 20.2051 66.3632 17.4621 66.3632H16.1821V60.3838H16.9136C18.1022 60.3838 18.8336 61.1197 19.1079 63.2355H19.5651V56.9802H19.1079C19.1079 56.9802 19.0165 59.6479 16.9136 59.6479H16.2735V59.5559ZM12.342 59.7399H6.94747V60.3838H8.77611V64.7993C8.50182 65.9032 6.76461 66.3632 6.30745 66.3632C2.83304 66.3632 3.10733 61.3037 3.10733 59.9239C3.10733 58.728 3.0159 53.4846 6.30745 53.4846C8.68468 53.4846 9.87329 55.7843 10.3305 57.9001H10.6962V52.9326C10.6962 52.9326 9.05041 54.1285 9.05041 54.0365C9.05041 54.0365 8.31895 52.9326 6.21602 52.9326C2.19301 52.9326 0.638672 56.9802 0.638672 59.8319C0.638672 62.4076 1.82729 66.9151 6.21602 66.9151C7.5875 66.9151 8.50182 66.1792 9.05041 65.4433L10.7876 66.8231V60.2918H12.2505V59.7399H12.342ZM75.3385 61.8557C74.8814 65.7192 73.8756 66.2712 71.1327 66.2712H70.9498V53.9445H72.687V53.3006H67.0182V53.9445H68.7554V66.3632H67.384L62.3552 52.9326H61.6238C61.6238 52.9326 57.4179 65.0753 57.4179 65.1673C57.4179 65.1673 57.1436 66.1792 56.4121 66.3632C55.7721 66.3632 55.8635 66.0872 55.8635 65.9032V63.5115C55.8635 62.8675 55.7721 61.4877 55.2235 60.8438C54.4921 60.1078 53.3035 60.1078 53.3035 60.0159C53.3035 60.0159 56.4121 59.3719 56.4121 56.4282C56.4121 54.3125 54.9492 53.3006 52.572 53.2086H45.806V53.8525H47.5432V66.2712H45.806V66.9151H51.3834V66.2712H49.6462V60.2918H51.932C55.955 60.6598 51.2005 66.9151 56.5036 66.9151H59.7951V66.2712C59.6123 66.2712 58.4236 66.2712 58.3322 65.4433C58.2408 64.7993 59.1551 62.5916 59.1551 62.5916H63.7267C63.7267 62.5916 65.0982 66.2712 65.1896 66.2712H63.6353V66.9151H75.9786V61.8557H75.3385ZM51.8405 59.6479H49.6462V53.9445H52.4806C54.1263 54.2205 54.2178 56.1523 54.2178 56.7042C54.2178 58.1761 53.5777 59.6479 51.8405 59.6479ZM59.5208 62.0396L61.5323 56.1523L63.6353 62.0396H59.5208ZM39.0401 53.8525C42.5145 53.8525 43.886 53.6686 44.4346 57.9921H44.8003V53.2086H30.9026V53.8525H31.2684C31.7255 53.8525 32.9141 53.8525 33.0056 54.9564V62.8675L26.5139 53.2086H22.9481V53.8525H23.4966C24.2281 53.8525 25.1424 53.8525 25.2339 54.9564V65.0753C25.2339 66.0872 23.7709 66.4551 23.1309 66.4551V66.9151H27.9768V66.4551C27.3368 66.4551 25.8739 66.0872 25.8739 65.0753V56.1523C28.434 59.8319 33.2799 66.9151 33.3713 66.9151H33.6456V54.9564C33.737 53.9445 34.8342 53.8525 35.3828 53.8525H36.9371V66.2712H35.1085V66.9151H44.9831V61.8557H44.526C44.0688 65.7192 43.0631 66.2712 40.3201 66.2712H39.0401V60.2918H39.7715C40.9601 60.2918 41.6916 61.0277 41.9659 63.1435H42.4231V56.8882H41.9659C41.9659 56.8882 41.8745 59.5559 39.7715 59.5559H39.1315V53.8525H39.0401ZM76.5272 53.2086V53.9445H78.2644V66.2712H76.5272V66.9151H82.1045V66.2712H80.2759V53.9445H82.1045V53.2086H76.5272ZM67.384 44.7455L69.1212 44.1016C71.5898 43.0897 71.9556 42.4458 71.7727 40.79V34.1667C73.6013 38.9502 75.43 42.2618 78.9958 42.2618C79.453 42.2618 80.0016 42.1698 80.5502 42.0778L81.9216 41.8019L80.9159 40.698C80.2759 40.054 80.0016 39.5021 79.6358 38.8582C79.453 38.5822 79.3615 38.3062 79.1787 38.0303C78.3558 36.6504 76.3443 36.1905 74.6985 36.9264C73.9671 35.4545 73.2356 33.5228 72.3213 31.131L72.1384 30.6711C71.9556 30.3031 71.8641 29.9352 71.6813 29.5672V29.4752C71.1327 28.1873 70.4926 26.9915 69.8526 25.7956C69.2126 24.6917 68.5726 23.7718 67.8411 22.9439C65.9211 20.7362 63.4524 19.3563 60.4351 18.8044C58.3322 18.4364 56.8693 18.3444 54.9492 18.2524C54.5835 18.2524 54.1263 18.2524 53.7606 18.1604C52.9377 18.0685 51.2005 17.9765 49.4633 17.7925C48.2747 17.7005 47.1775 17.6085 46.2632 17.5165C46.3546 17.2405 46.3546 16.9646 46.3546 16.6886C46.3546 16.3206 46.3546 15.9527 46.2632 15.6767H58.3322C61.4409 15.6767 63.7267 14.2969 65.0067 11.5372C68.1154 11.5372 70.3098 10.0653 71.6813 7.39763H72.1384C75.3385 7.39763 77.6243 5.92579 78.9958 2.98211L79.453 2.1542H38.6743C36.0228 2.1542 33.737 3.90201 32.8227 6.66171V6.7537C32.0912 4.82191 30.9026 3.16609 29.2569 2.1542C26.9711 0.774354 24.411 0.314405 22.3995 0.958334C21.7594 1.14231 21.028 1.41828 20.4794 1.78624C20.0222 2.1542 19.2908 2.61415 18.8336 3.25808C18.285 3.90201 17.8279 4.72992 17.4621 5.46584C17.1878 5.64982 17.005 5.8338 16.9136 6.01778L16.4564 6.93768V7.02967C15.9078 8.31753 15.1763 9.23742 14.6278 9.97334C14.0792 10.6173 14.0792 11.2612 14.0792 11.6292C14.1706 12.0891 14.3535 12.4571 14.6278 12.733C14.4449 13.009 14.3535 13.377 14.3535 13.6529C14.3535 14.7568 15.2678 15.5847 16.4564 15.5847C17.2793 15.5847 18.0107 15.2168 18.7422 14.6648C19.0165 14.4809 19.8394 13.9289 20.1137 13.9289C20.4794 13.9289 20.7537 14.2049 20.7537 14.5728C20.7537 15.4927 19.6565 15.9527 18.8336 15.9527L17.1878 16.1367C15.9992 16.2287 15.4506 16.8726 15.4506 17.4245C15.4506 17.9765 15.7249 18.3444 15.9078 18.5284L15.9992 18.6204L16.4564 18.9884L14.5363 21.932C13.2563 20.7362 11.7934 20.0922 10.5133 20.0002C9.69043 20.0002 8.95898 20.1842 8.41038 20.7362C8.22752 20.9201 8.13609 21.0121 8.04466 21.1961C6.67318 21.1961 5.57599 21.932 5.0274 22.7599C4.38738 23.6798 4.66168 25.2437 5.39313 26.4395L0.821536 27.7274V49.0691H82.1959V44.8375H67.384V44.7455ZM77.8986 38.9502C78.0815 39.2261 78.1729 39.5021 78.3558 39.6861C78.5387 39.9621 78.7215 40.238 78.9044 40.606C77.6243 40.514 76.6186 39.7781 75.7957 38.4902C76.5272 38.1223 77.5329 38.3982 77.8986 38.9502ZM60.2523 20.7362C62.9038 21.1961 65.0067 22.392 66.6525 24.2318C67.0182 24.5997 67.2925 25.0597 67.6583 25.5196C63.2695 24.9677 61.7152 24.3238 59.2465 20.5522C59.6123 20.5522 59.8865 20.6442 60.2523 20.7362ZM58.3322 14.2969H50.0119C50.7434 13.6529 51.292 12.825 51.7491 11.9051H62.9952C62.0809 13.561 60.5266 14.2969 58.3322 14.2969ZM64.9153 10.2493H56.595C57.3265 9.60538 57.9665 8.77748 58.4236 7.76559H69.6698C68.7554 9.4214 67.2011 10.2493 64.9153 10.2493ZM65.5553 3.90201H76.71C75.6128 5.37385 74.1499 6.10977 72.047 6.10977H63.7267C64.4581 5.46584 65.0982 4.72992 65.5553 3.90201ZM20.2051 4.26997C20.4794 3.90201 20.9366 3.53405 21.3937 3.16609C21.7594 2.89012 22.308 2.61415 22.8566 2.52216C23.6795 2.33818 24.5938 2.33818 25.5082 2.52216L22.4909 4.36196C22.1252 4.36196 21.7594 4.26997 21.3937 4.26997C20.8451 4.26997 20.388 4.26997 20.0222 4.36196C20.1137 4.36196 20.1137 4.36196 20.2051 4.26997ZM16.7307 17.5165C16.7307 17.4245 16.8221 17.3325 16.9136 17.3325L18.3765 17.4245C20.1137 17.3325 21.9423 16.5966 22.1252 14.7568C22.1252 13.469 21.2109 12.2731 20.0222 12.2731C19.3822 12.2731 18.5593 12.733 17.7364 13.285C17.1878 13.6529 16.7307 13.9289 16.4564 13.9289C16.2735 13.9289 16.0907 13.7449 16.0907 13.6529V13.561L17.005 12.2731L16.1821 11.7212C15.9992 11.6292 15.7249 11.3532 15.7249 11.2612C15.7249 11.1692 15.8164 11.0772 15.8164 10.9852C16.1821 10.6173 16.5478 10.1573 16.9136 9.5134C17.1878 9.14544 17.2793 8.96146 17.645 8.96146C18.0107 8.96146 18.3765 9.23742 18.3765 9.69737C18.3765 9.97334 18.6508 10.1573 19.0165 10.1573C19.3822 10.1573 19.5651 9.88135 19.7479 9.69737C19.7479 9.69737 20.5708 8.96146 20.1137 8.5935C19.6565 8.22554 17.645 9.05345 18.1936 7.21365L18.3765 6.93768C18.5593 6.66171 19.5651 5.92579 21.4851 5.92579C21.8509 5.92579 22.2166 5.92579 22.6738 6.01778H22.9481L27.1539 3.44206C27.1539 3.53405 27.2454 3.62604 27.2454 3.62604C27.4282 4.9139 26.6968 6.38574 25.4167 7.12166L24.8681 7.39763L25.2339 9.32942C24.1367 9.69738 23.4052 10.5253 23.4052 11.5372C23.4052 11.9051 23.4966 12.3651 23.5881 12.825C23.6795 13.469 23.8624 14.1129 23.8624 14.7568C23.8624 16.7806 21.1194 18.0685 18.8336 17.9765H18.7422C18.6508 17.9765 17.1878 17.8845 16.8221 17.6085C16.7307 17.7005 16.7307 17.6085 16.7307 17.5165ZM6.30745 23.7718C6.67318 23.2199 7.40463 22.8519 8.31895 22.9439L9.05041 23.0359L9.3247 22.392C9.41613 22.208 9.50757 22.024 9.599 21.932C9.78186 21.7481 10.1476 21.6561 10.5133 21.6561C11.5191 21.6561 12.7991 22.392 13.8049 23.4959C14.1706 23.8638 14.5363 24.4158 14.8106 24.8757C14.9021 24.9677 14.9021 25.0597 14.9935 25.1517C15.0849 25.2437 15.1763 25.4276 15.1763 25.4276C15.1763 25.5196 15.7249 26.2556 15.7249 26.3475C16.0907 25.8876 16.4564 25.3357 16.7307 24.8757V24.7837C16.6393 24.5997 16.4564 24.3238 16.365 24.1398L16.2735 24.0478C16.2735 24.0478 16.1821 23.9558 16.1821 23.8638C16.0907 23.6798 15.9078 23.4039 15.8164 23.3119L18.0107 19.8163C18.5593 19.9083 19.0165 19.9083 19.2908 19.9083H19.3822C22.4909 19.9083 25.691 18.0685 25.691 15.1248V15.0328C25.691 14.2049 25.5082 13.469 25.4167 12.825C25.3253 12.3651 25.2339 11.9971 25.2339 11.8131C25.2339 11.4452 25.691 11.0772 26.331 11.0772H27.3368L26.8796 8.50151C28.2511 7.48962 29.1654 5.74181 29.074 4.17798C30.6283 5.37385 31.6341 7.39763 31.817 9.5134C31.9084 10.1573 31.7255 10.9852 31.5427 11.9051L31.4512 12.2731C31.0855 13.7449 30.5369 15.3088 30.2626 16.0447L29.9883 16.6886L30.6283 17.0566C31.7255 17.7005 32.457 18.1604 32.457 19.6323C32.457 21.3801 30.9026 22.668 29.4397 22.9439L27.3368 23.3119L29.074 24.5077C29.6226 24.8757 29.9883 25.5196 29.9883 26.1636C29.9883 27.2674 29.074 28.0954 27.9768 28.0954H27.3368L27.1539 28.6473C26.5139 30.6711 25.8739 31.683 23.6795 31.9589V29.8432V28.9233L23.5881 26.9915L22.2166 28.3713C21.7594 28.8313 20.9366 29.1992 20.0222 29.3832V27.7274L10.4219 25.1517L7.03891 26.0716C6.30745 25.3357 6.12459 24.0478 6.30745 23.7718ZM3.56449 44.7455L10.5133 42.9057L17.4621 44.7455H3.56449ZM18.3765 43.2737L10.4219 41.1579L2.46731 43.2737V29.0153L10.4219 26.8995L18.3765 29.0153V43.2737ZM22.1252 40.514C21.3937 41.5259 21.3023 42.9977 21.8509 44.7455H20.1137V31.131C20.7537 31.039 21.3937 30.8551 22.0337 30.5791C22.0337 31.131 21.9423 31.683 21.8509 32.2349C21.8509 32.4189 21.7594 32.5109 21.7594 32.6949L21.5766 33.7067H22.5823C24.0452 33.7067 25.1424 33.4308 26.0567 33.0628V38.7662C26.0567 38.9502 25.9653 39.0422 25.7824 39.0422H25.5082C24.0452 38.9502 22.7652 39.5021 22.1252 40.514ZM40.4116 40.882C39.7715 41.6179 39.2229 42.8137 39.5887 44.7455H29.2569C30.354 44.6535 31.1769 44.3776 31.7255 43.8256C32.3655 43.0897 32.457 42.1698 32.457 41.4339C32.457 41.3419 32.5484 41.1579 33.097 40.882L34.0113 40.514L33.4627 39.6861C32.5484 38.3062 33.0056 35.3626 33.2799 33.7067H33.3713C36.8457 33.7067 39.1315 32.9708 41.5087 32.2349C42.1488 32.0509 42.7888 31.8669 43.4288 31.591C44.0688 31.315 44.1603 31.407 45.0746 31.131L48.4576 36.7424V36.8344C48.8233 37.2943 48.8233 37.6623 48.1833 38.3062L46.5375 40.146L43.7945 39.5941C42.6059 39.4101 41.2344 39.9621 40.4116 40.882ZM41.3259 44.7455C41.0516 43.5497 41.143 42.6298 41.6916 41.9858C42.2402 41.3419 42.9716 41.2499 43.6117 41.2499L46.8118 41.8019H47.3604L49.6462 39.3181C50.0119 38.8582 51.2005 37.4783 50.0119 35.7305L46.9947 30.7631C47.4518 30.6711 48.0004 30.6711 48.4576 30.6711C48.9147 30.6711 50.0119 30.6711 51.6577 31.591C51.8405 32.0509 52.2063 32.6949 52.4806 33.4308C53.1206 34.7186 53.9435 36.3745 54.1263 37.0184C54.2178 37.2024 54.4006 37.8463 53.6692 38.6742L47.909 44.8375H41.3259V44.7455ZM61.0752 44.7455H50.1033L54.7664 39.7781C55.6807 38.7662 56.0464 37.5703 55.5892 36.4664C55.4064 35.8225 54.7664 34.5347 54.1263 33.1548C55.955 33.9827 58.7894 34.8106 64.5496 35.2706C65.281 35.3626 65.4639 35.5465 65.5553 36.1905L65.8296 38.6742L62.8124 39.3181C61.8066 39.5021 60.9837 40.146 60.618 41.1579C60.2523 42.2618 60.4351 43.5497 61.0752 44.7455ZM62.2638 41.8019C62.4466 41.3419 62.7209 41.0659 63.1781 40.9739L67.6583 39.9621L67.2925 35.9145V35.8225C67.2011 35.2706 66.8354 33.7067 64.7324 33.5228C56.6864 32.8788 54.8578 31.683 52.8463 30.3951L52.7549 30.3031C50.6519 28.9233 48.549 28.9233 48.3661 28.9233C46.0803 28.9233 43.2459 29.8432 42.9716 29.9352C42.2402 30.1191 41.6002 30.3951 40.9601 30.5791C38.4001 31.407 36.2971 32.1429 32.6398 31.9589H31.9998L31.817 32.6029C31.7255 33.0628 30.6283 37.2024 31.6341 39.7781C30.7198 40.514 30.7198 41.2499 30.7198 41.4339C30.7198 42.3538 30.5369 42.5378 30.4455 42.6298C29.9883 43.0897 28.6168 43.0897 27.4282 43.0897H26.9711L26.6968 43.4577C25.9653 44.4696 24.411 44.7455 23.4052 44.4696C22.9481 43.0897 22.9481 42.0778 23.4052 41.4339C23.9538 40.698 24.9596 40.606 25.4167 40.606H25.691C26.7882 40.606 27.6111 39.6861 27.6111 38.6742V31.407C27.9768 30.947 28.1597 30.3031 28.434 29.6592C30.1712 29.3832 31.5427 27.9114 31.5427 26.0716C31.5427 25.3357 31.3598 24.6917 30.9941 24.1398C32.6398 23.3119 34.0113 21.7481 34.0113 19.6323C34.0113 17.5165 32.9141 16.5046 31.9084 15.9527C32.1827 15.1248 32.6398 13.7449 33.0056 12.2731L34.377 7.21365C35.0171 5.18987 36.6628 3.90201 38.5829 3.90201H63.4524C62.3552 5.37385 60.8923 6.10977 58.7894 6.10977H43.886L43.0631 7.76559H56.595C55.4978 9.4214 53.9435 10.2493 51.7491 10.2493H41.9659L41.143 11.9051H49.829C48.7319 13.561 47.2689 14.2969 45.0746 14.2969H39.7715L38.9486 15.9527H44.526C44.6174 16.0447 44.7089 16.3206 44.7089 16.9646C44.7089 18.0685 43.7945 18.8964 42.6973 18.8964C42.3316 18.8964 41.9659 18.8044 41.4173 18.5284C41.143 18.4364 40.9601 18.3444 40.6858 18.2524L39.4058 19.4483C39.6801 19.5403 39.863 19.6323 40.1373 19.7243C41.2344 20.1842 41.8745 20.4602 42.6973 20.4602C43.7031 20.4602 44.6174 20.0002 45.3489 19.3563C46.2632 19.4483 47.8175 19.5403 49.3719 19.6323C51.2005 19.8163 52.8463 19.9083 53.7606 20.0002C54.2178 20.0002 54.5835 20.0002 55.0407 20.0922C55.7721 20.0922 56.5036 20.1842 57.1436 20.1842C60.5266 25.7036 62.2638 26.4395 68.8469 27.2674C69.304 28.0954 69.7612 29.0153 70.1269 29.9352V41.5259C69.8526 41.8019 68.8469 42.2618 68.5726 42.3538L62.9952 44.6535C62.2638 43.6417 61.9895 42.6298 62.2638 41.8019Z" fill="#C5281C"/>
<path d="M11.3362 31.5916L16.6392 32.9714V31.2236L11.3362 29.8438V31.5916ZM9.59895 29.8438L4.2959 31.2236V32.9714L9.59895 31.5916V29.8438ZM9.59895 33.3394L4.2959 34.7192V36.467L9.59895 35.0872V33.3394ZM11.3362 35.0872L16.6392 36.467V34.7192L11.3362 33.3394V35.0872ZM11.3362 38.5828L16.6392 39.9626V38.2148L11.3362 36.835V38.5828ZM9.59895 36.835L4.2959 38.2148V39.9626L9.59895 38.5828V36.835Z" fill="#C5281C"/>
</svg>
