<svg width="141" height="42" viewBox="0 0 141 42" fill="none" xmlns="http://www.w3.org/2000/svg">
<path d="M42.4299 23.172C42.5734 21.788 42.5555 20.2799 42.403 18.7274C42.394 18.6298 42.3671 18.55 42.3043 18.4879C42.2505 18.4346 42.1968 18.4169 42.125 18.408C40.8337 18.3104 39.4257 18.2661 37.8294 18.2838C28.7631 18.3992 17.1858 20.6702 12.0652 25.6205C9.66191 27.9448 8.51403 30.9079 9.39286 34.6073C10.3883 38.8123 13.9305 40.6842 16.1276 41.2786C17.2486 41.5802 18.0826 41.5182 18.0826 41.5182C18.0826 41.5182 18.244 41.527 18.2619 41.4472C18.2709 41.4028 18.1364 41.2964 18.1364 41.2964C18.1364 41.2964 17.7328 40.9503 17.4997 40.7019C17.2665 40.4535 17.141 40.2939 16.9526 40.01C16.6208 39.4955 16.2711 38.8035 15.9931 37.8365C15.4102 35.7783 16.0559 33.8443 17.5625 32.3007C20.1272 29.6659 25.7679 27.9271 35.6413 27.9448L41.0847 28.0424C41.0847 28.0424 41.2462 28.0513 41.3179 27.9892C41.3627 27.936 41.3627 27.9448 41.4165 27.7851C41.7394 26.8802 42.2147 25.1858 42.4299 23.172ZM24.2434 0.416748C23.0686 0.212708 21.1047 0.159481 19.5443 0.310295C18.2799 0.425625 16.8181 0.682888 15.8586 0.966774C15.7599 1.00226 15.6882 1.00224 15.6344 1.05547C15.5927 1.10131 15.562 1.1559 15.5447 1.21515C14.7556 3.94755 10.4062 6.96389 9.33906 7.8599C7.81455 9.13739 6.43353 10.2463 5.14218 11.6303C4.03915 12.8102 2.88231 14.2207 2.10212 15.578C1.27709 16.9974 0.846635 18.4258 0.613475 19.8186C0.416185 20.9985 0.380321 22.1074 0.452062 22.9679L0.478965 23.2341C0.604512 24.4672 0.819732 25.0172 0.837667 25.0793C0.873538 25.1858 0.909421 25.31 0.99013 25.31C1.07981 25.31 1.09774 25.1592 1.12464 25.0616C1.15154 24.9729 1.28606 24.4761 1.40264 24.0858C1.53715 23.6244 1.61788 23.3672 1.76137 22.9147C2.20078 21.6727 2.99891 19.925 4.70277 18.0709C9.79643 12.544 15.3385 11.4351 19.9927 7.23001C22.9431 4.56858 23.8578 2.08457 24.4496 0.736107C24.4945 0.638523 24.5393 0.576424 24.4945 0.51432C24.4496 0.452221 24.36 0.43449 24.2434 0.416748Z" fill="#E50028"/>
<path d="M42.1073 16.9319C41.7577 15.0778 40.9236 12.7358 39.9102 11.0148C39.722 10.6243 39.3274 10.0211 39.0942 9.64855C38.9956 9.49768 39.0135 9.55092 38.9597 9.48885C38.879 9.409 38.6459 9.40004 38.6459 9.40004C38.072 9.32914 36.7267 9.27591 35.1305 9.27591H35.1216C32.3147 9.24046 28.8352 9.58636 24.979 10.3227C19.2756 11.4139 14.3255 13.2947 10.308 15.8762C5.9855 18.6442 2.81092 21.7757 1.58228 26.7882C1.38501 27.5777 1.89623 28.997 2.44316 30.1238C2.79295 30.8247 3.16058 31.3569 3.50144 31.8715C3.5462 31.9424 3.60907 32.0222 3.66288 31.9868C3.69858 31.9691 3.70764 31.9336 3.72562 31.8449C3.80634 31.4634 3.89598 30.7713 4.26375 29.7867C4.92723 28.0124 6.45171 24.2421 12.9623 21.1459C17.2937 19.0789 22.0017 18.0942 26.3062 17.5884C33.1307 16.7899 38.2961 16.7546 41.8742 17.1361C41.9728 17.1449 42.0804 17.1714 42.1073 17.1183C42.1343 17.0652 42.1252 17.0118 42.1073 16.9319Z" fill="#E50028"/>
<path d="M38.4217 20.0117H36.5295V22.1497H34.3594V24.0305H36.5295V26.1685H38.4217V24.0305H40.5919V22.1497H38.4217V20.0117Z" fill="white"/>
<path d="M59.9614 25.0916C59.2081 25.6416 58.0692 26.165 55.7555 26.165C53.7917 26.165 52.1773 25.8101 51.7918 25.8101C51.496 25.8101 51.4779 26.0231 51.2089 26.0231C50.9666 26.0231 50.9399 25.9521 50.895 25.5884C50.7515 24.5858 50.5273 22.5808 50.5273 21.9333C50.5273 21.7204 50.6799 21.4542 51.1102 21.4542C51.2806 21.4542 51.3075 21.5962 51.3524 21.8357C51.5497 22.8204 51.9802 23.6366 52.7065 24.2044C53.5316 24.8254 54.7153 25.1891 55.9976 25.1891C57.7823 25.1891 59.1364 24.0624 59.1364 22.3858C59.1364 20.7178 58.0244 20.1412 55.5314 19.0412C53.6481 18.2073 52.9756 17.8967 52.2491 17.1782C51.4062 16.362 51.2089 15.4305 51.2089 14.6676C51.2089 12.2278 53.0472 10.4803 56.4998 10.4803C57.1276 10.4803 57.9526 10.5335 58.6252 10.6044C59.2798 10.6754 59.8089 10.7464 59.8807 10.7464C59.9793 10.7464 60.0511 10.6932 60.1227 10.6488C60.2035 10.6222 60.2214 10.6222 60.365 10.6222C60.5174 10.6222 60.5353 10.7198 60.5353 10.8617C60.5353 11.0037 60.4905 12.2279 60.5622 12.8224C60.6071 13.3014 60.6878 13.9933 60.6878 14.1175C60.6878 14.3571 60.3649 14.428 60.1497 14.428C60.0062 14.428 59.9793 14.3571 59.8627 13.9933C59.6206 13.2836 59.3515 12.5118 58.5535 11.9884C57.9526 11.5537 57.1096 11.3407 56.2129 11.3407C54.5897 11.3407 53.3612 12.3255 53.3612 13.949C53.3612 15.7144 54.491 16.1935 57.298 17.4178C59.235 18.2516 61.5307 19.2363 61.5307 21.9333C61.5307 23.3882 60.7774 24.4972 59.9614 25.0916ZM78.5963 16.433C78.0403 16.6992 77.1614 18.2516 76.5605 19.3783C75.9598 20.4961 74.9913 22.5809 74.2201 24.231C74.0497 24.6391 73.6819 25.4464 73.6103 25.5884C73.5205 25.8278 73.3501 25.8988 73.126 25.9254L72.5251 25.9965C72.3547 26.0229 72.3278 25.9787 72.1844 25.4464C71.8974 24.3995 71.2428 22.368 70.3997 20.0259C68.7587 23.1752 68.3911 23.9472 67.6466 25.615C67.548 25.8812 67.548 25.8812 67.3777 25.8988L66.5348 26.0231C66.4361 26.0231 66.4092 25.952 66.2657 25.5706C65.4407 23.2285 64.0418 19.5646 63.1449 17.6572C62.7862 16.912 62.571 16.5748 62.3467 16.4863C62.0598 16.3354 62.033 16.3354 62.033 16.0516C62.033 15.8564 62.0867 15.7854 62.302 15.7854C62.8131 15.7854 63.8264 15.8119 64.212 15.8119C65.0549 15.8119 65.8353 15.7854 66.5795 15.7854C66.6782 15.7854 66.7051 15.9361 66.7051 16.1048C66.7051 16.3886 66.6782 16.4063 66.3823 16.433C65.611 16.5039 65.3958 16.7435 65.3958 17.1516C65.3958 17.5597 65.8083 18.6597 66.167 19.6622C66.5526 20.6469 66.9382 21.6761 67.7364 23.6544C68.1758 22.7671 69.5299 19.9993 70.0321 18.9259C69.5748 17.7726 69.2609 17.0097 69.0456 16.7258C68.8305 16.4861 68.678 16.4596 68.2206 16.3886C68.0771 16.3621 68.0502 16.2645 68.0502 16.1224C68.0502 15.883 68.104 15.7854 68.3462 15.7854C69.0009 15.7854 70.2294 15.8119 70.6599 15.8119C71.198 15.8119 72.579 15.7854 72.839 15.7854C73.0811 15.7854 73.1081 15.883 73.1081 16.1048C73.1081 16.3886 73.0811 16.4063 72.7942 16.4596C72.0409 16.5039 71.6284 16.5305 71.6284 17.1072C71.6284 17.5331 73.2247 22.3146 73.6819 23.61C74.4084 22.0574 75.2602 20.2388 75.7356 19.0856C76.0047 18.4468 76.3723 17.5775 76.3723 17.125C76.3723 16.5039 75.7894 16.4064 75.2333 16.3886C74.9195 16.3886 74.8926 16.3621 74.8926 16.1048C74.8926 15.883 74.9195 15.7854 75.1079 15.7854C75.3769 15.7854 76.2467 15.8119 77.018 15.8119C77.6008 15.8119 78.3003 15.7854 78.6142 15.7854C78.7846 15.7854 78.8384 15.883 78.8384 16.0516C78.8384 16.291 78.7577 16.3354 78.5963 16.433ZM82.3088 12.2546C81.7618 12.2546 81.1072 11.6069 81.1072 11.0569C81.1072 10.4092 81.8516 9.76172 82.3896 9.76172C82.9455 9.76172 83.6182 10.4092 83.6182 10.9859C83.6182 11.5803 82.9635 12.2546 82.309 12.2546H82.3088ZM84.8736 25.9254C84.5329 25.9254 83.4478 25.881 82.2641 25.881C81.3225 25.881 79.9684 25.9254 79.511 25.9254C79.3406 25.9254 79.2957 25.881 79.2957 25.6681C79.2957 25.3754 79.3406 25.3578 79.6813 25.2778C80.4796 25.1359 80.7665 24.9495 80.9369 24.4173C81.1252 23.8229 81.1252 21.8623 81.1252 20.4784C81.1252 17.9854 81.1252 17.6572 79.9684 17.5064C79.5827 17.4354 79.5558 17.4354 79.5558 17.1782C79.5558 16.912 79.6813 16.8944 79.8966 16.7701C80.354 16.5749 81.8516 15.8564 82.4344 15.6257C82.6766 15.5015 82.8739 15.4571 83.0353 15.4571C83.2057 15.4571 83.2775 15.5282 83.2775 15.6701C83.2595 16.0071 83.2057 16.7257 83.1877 17.1072C83.1609 17.6572 83.116 18.7307 83.116 20.5671C83.116 21.3123 83.116 23.9471 83.2326 24.4705C83.3491 25.1359 83.8155 25.2069 84.7571 25.2601C85.0889 25.2778 85.1427 25.331 85.1427 25.5884C85.1427 25.881 85.071 25.9254 84.8736 25.9254ZM89.4472 26.1472C88.4249 26.1472 87.6088 25.9965 87.1693 25.9254C86.9542 25.8989 86.7569 25.8544 86.6672 25.8544C86.5955 25.8544 86.4251 25.8988 86.3264 25.8988C86.183 25.8988 86.1292 25.7835 86.1292 25.5884C86.1292 25.331 86.156 24.9229 86.156 24.4173C86.156 24.0358 86.0574 23.2019 86.0574 22.989C86.0574 22.7938 86.2547 22.7494 86.5148 22.7494C86.6672 22.7494 86.6852 22.7938 86.7839 23.1576C87.268 24.9495 88.9091 25.3311 89.779 25.3311C91.3304 25.3311 91.6892 24.3286 91.6892 23.7253C91.6892 22.6962 90.8462 22.1995 89.2498 21.4542C87.8958 20.8333 86.4431 20.1412 86.4431 18.4468C86.4431 17.3467 87.2232 15.5991 90.3888 15.5991C91.2587 15.5991 92.299 15.7854 92.4693 15.7854C92.5411 15.7854 92.7025 15.741 92.8011 15.741C92.9716 15.741 92.9716 15.7854 93.0253 16.1491C93.0701 16.6991 93.1867 17.7726 93.1867 18.1541C93.1867 18.3669 93.1419 18.4468 92.7025 18.4468C92.586 18.4468 92.5411 18.3935 92.4424 18.1363C92.1733 17.5597 91.5008 16.4064 89.9494 16.4064C88.5056 16.4064 88.2814 17.4178 88.2814 17.8701C88.2814 18.8016 88.936 19.2098 90.8013 20.0702C92.1016 20.6647 93.7427 21.4364 93.7427 23.2285C93.7427 25.7125 90.8462 26.1472 89.4472 26.1472ZM98.4328 26.1472C97.4196 26.1472 96.5945 25.9965 96.164 25.9254C95.9398 25.8989 95.7515 25.8544 95.6529 25.8544C95.5811 25.8544 95.4106 25.8988 95.3121 25.8988C95.1686 25.8988 95.1237 25.7835 95.1237 25.5884C95.1237 25.331 95.1506 24.9229 95.1506 24.4173C95.1506 24.0358 95.052 23.2019 95.052 22.989C95.052 22.7938 95.2404 22.7494 95.5093 22.7494C95.6529 22.7494 95.6798 22.7938 95.7784 23.1576C96.2627 24.9495 97.9037 25.3311 98.7737 25.3311C100.316 25.3311 100.684 24.3286 100.684 23.7253C100.684 22.6962 99.8318 22.1995 98.2445 21.4542C96.8904 20.8333 95.4377 20.1412 95.4377 18.4468C95.4377 17.3467 96.2089 15.5991 99.3744 15.5991C100.244 15.5991 101.285 15.7854 101.455 15.7854C101.527 15.7854 101.697 15.741 101.796 15.741C101.966 15.741 101.966 15.7854 102.011 16.1491C102.056 16.6991 102.181 17.7726 102.181 18.1541C102.181 18.3669 102.128 18.4468 101.697 18.4468C101.58 18.4468 101.527 18.3935 101.428 18.1363C101.168 17.5597 100.487 16.4064 98.9439 16.4064C97.4912 16.4064 97.276 17.4178 97.276 17.8701C97.276 18.8016 97.9217 19.2098 99.7869 20.0702C101.096 20.6647 102.737 21.4364 102.737 23.2285C102.737 25.7125 99.8318 26.1472 98.4328 26.1472ZM116.099 25.2779C115.956 25.7835 115.911 25.9787 115.669 25.9787C115.158 25.9787 114.745 25.8544 110.225 25.8544C106.046 25.8544 105.078 25.9787 104.791 25.9787C104.549 25.9787 104.504 25.8988 104.504 25.6682C104.504 25.331 104.522 25.331 104.908 25.2778C106.315 25.1625 106.432 24.3729 106.531 23.5391C106.674 22.0574 106.674 19.0678 106.674 17.1072V13.6384C106.674 12.0328 106.558 11.5537 105.32 11.3674C104.764 11.2965 104.719 11.2698 104.719 11.0569C104.719 10.7198 104.764 10.6932 104.988 10.6932C105.733 10.6932 107.132 10.7907 107.84 10.7907C108.728 10.7907 110.279 10.6932 110.88 10.6932C111.05 10.6932 111.149 10.7641 111.149 10.9594C111.149 11.2965 111.122 11.3141 110.71 11.3674C109.651 11.4384 109.212 11.6779 109.069 12.4674C108.871 13.3724 108.853 17.196 108.853 18.7572C108.853 20.9308 108.871 23.4858 109.042 24.2044C109.167 24.781 109.553 24.8076 110.566 24.8076C112.064 24.8076 113.732 24.8076 114.584 24.302C115.229 23.9205 115.669 23.131 115.929 22.2704C116.027 21.9333 116.081 21.747 116.225 21.747C116.682 21.747 116.754 21.8357 116.754 22.0043C116.754 22.368 116.61 23.468 116.099 25.2779ZM120.673 12.2546C120.117 12.2546 119.462 11.6069 119.462 11.0569C119.462 10.4092 120.206 9.76172 120.745 9.76172C121.301 9.76172 121.973 10.4092 121.973 10.9859C121.973 11.5803 121.318 12.2546 120.673 12.2546H120.673ZM123.229 25.9254C122.897 25.9254 121.803 25.881 120.619 25.881C119.677 25.881 118.323 25.9254 117.866 25.9254C117.696 25.9254 117.651 25.881 117.651 25.6681C117.651 25.3754 117.696 25.3578 118.036 25.2778C118.834 25.1359 119.121 24.9495 119.292 24.4173C119.489 23.8229 119.489 21.8623 119.489 20.4784C119.489 17.9854 119.489 17.6572 118.323 17.5064C117.938 17.4354 117.911 17.4354 117.911 17.1782C117.911 16.912 118.036 16.8944 118.252 16.7701C118.709 16.5749 120.206 15.8564 120.789 15.6257C121.031 15.5015 121.229 15.4571 121.39 15.4571C121.561 15.4571 121.641 15.5282 121.641 15.6701C121.614 16.0071 121.561 16.7257 121.543 17.1072C121.516 17.6572 121.471 18.7307 121.471 20.5671C121.471 21.3123 121.471 23.9471 121.587 24.4705C121.704 25.1359 122.17 25.2069 123.112 25.2601C123.453 25.2778 123.498 25.331 123.498 25.5884C123.498 25.881 123.426 25.9254 123.229 25.9254Z" fill="#1A1B1F"/>
<path d="M133.578 11.5814C133.435 11.5814 133.282 11.4128 132.995 11.1733C132.654 10.8894 132.08 10.5079 130.843 10.5079C128.233 10.5079 128.117 12.087 128.117 15.8397H131.498C131.74 15.8397 131.713 15.9107 131.713 16.4341C131.713 16.9131 131.713 17.0373 131.399 17.0373H128.117C128.117 19.2552 128.135 22.2715 128.162 23.7086C128.206 25.0393 128.673 25.2345 130.287 25.2345C130.601 25.2612 130.628 25.3055 130.628 25.5717C130.628 25.8822 130.583 25.9531 130.143 25.9531C129.785 25.9531 128.018 25.8999 126.879 25.8999C126.063 25.8999 125.05 25.9531 124.655 25.9531C124.539 25.9531 124.512 25.8111 124.512 25.6426C124.512 25.3587 124.539 25.3321 124.826 25.2789C125.839 25.1369 126.009 24.8974 126.063 23.5578C126.108 21.9787 126.108 18.7761 126.108 17.055H124.852C124.709 17.0373 124.709 17.0107 124.709 16.8156C124.709 16.5317 124.709 16.5051 124.826 16.4341L126.135 15.8574C126.18 13.7815 126.207 12.85 127.292 11.466C128.332 10.1265 130.099 9.0264 132.027 9.0264C133.847 9.0264 134.878 9.88696 134.878 10.5523C134.878 11.1023 133.766 11.5814 133.578 11.5814Z" fill="#1A1B1F"/>
<path d="M136.402 16.4608C134.976 16.4608 134.321 18.2795 134.303 20.0449C135.317 19.8763 135.944 19.7344 137.684 19.3086C138.428 19.1134 138.554 18.9271 138.554 18.6876C138.554 17.827 137.612 16.4608 136.402 16.4608ZM140.607 24.6137C139.693 25.4033 138.097 26.1484 136.429 26.1484C132.949 26.1484 132.223 23.2031 132.223 21.3845C132.223 17.6585 134.787 15.6003 137.083 15.6003C138.24 15.6003 140.078 16.1947 140.652 18.3061C140.805 18.8739 140.921 19.5925 140.805 19.6191C138.626 19.9473 136.473 20.3554 134.321 20.7901C134.393 22.4579 135.047 24.7823 137.585 24.7823C138.357 24.7823 139.567 24.5693 140.679 23.7265C140.751 23.6556 140.805 23.6378 140.823 23.7265C140.85 23.8951 140.876 24.0193 140.894 24.179C140.894 24.3476 140.823 24.4451 140.607 24.6137Z" fill="#1A1B1F"/>
</svg>
