<svg width="204" height="29" viewBox="0 0 204 29" fill="none" xmlns="http://www.w3.org/2000/svg">
<path d="M49.8759 27.0985C41.7338 22.3977 37.5254 14.54 32.0742 2.04445C45.3759 0.315596 56.1136 1.14732 62.6725 4.93408C68.793 8.46776 70.8901 16.2941 67.3564 22.4146C63.8227 28.5352 55.9964 30.6322 49.8759 27.0985Z" fill="#5E38E4"/>
<path d="M19.9881 2.60718C28.1301 7.30795 32.3386 15.1658 37.7897 27.6613C24.488 29.3901 13.7503 28.5584 7.19147 24.7717C1.07093 21.238 -1.02612 13.4117 2.50758 7.29105C6.04127 1.17054 13.8675 -0.926505 19.9881 2.60718Z" fill="#FF8C22"/>
<path d="M91.4066 24.8488C93.6439 24.8488 95.1763 23.8987 96.0038 22.3356V24.4503H100.662V9.67798H96.0038V17.6158C96.0038 19.6079 95.1457 20.8952 93.1535 20.8952C91.3759 20.8952 90.7017 19.7918 90.7017 17.7691V9.67798H85.9512V18.8111C85.9512 22.6421 87.8514 24.8488 91.4066 24.8488ZM104.541 9.67798V24.4503H109.23V16.727C109.23 14.4591 110.211 13.2332 112.08 13.2332C113.981 13.2332 114.685 14.3671 114.685 16.8496V24.4503H119.405V15.3172C119.405 11.3023 117.597 9.27958 114.011 9.27958C111.774 9.27958 110.088 10.1683 109.23 11.8233V9.67798H104.541ZM123.157 2.99669V24.4503H127.846V2.99669H123.157ZM134.077 8.36008C135.763 8.36008 136.989 7.07288 136.989 5.50983C136.989 3.91613 135.763 2.62891 134.077 2.62891C132.391 2.62891 131.196 3.91613 131.196 5.50983C131.196 7.07288 132.391 8.36008 134.077 8.36008ZM131.717 9.67798V24.4503H136.406V9.67798H131.717ZM140.277 9.67798V24.4503H144.966V16.8496C144.966 14.0606 145.978 13.2332 147.479 13.2332C148.92 13.2332 149.655 14.0606 149.655 16.1141V24.4503H154.375V16.8496C154.375 14.0606 155.387 13.2332 156.858 13.2332C158.298 13.2332 159.064 14.0913 159.064 16.1447V24.4503H163.784V15.2866C163.784 12.1911 162.773 9.27958 158.543 9.27958C156.367 9.27958 154.62 10.4135 153.824 12.0072C153.18 10.4442 151.831 9.27958 149.196 9.27958C147.142 9.27958 145.61 10.3522 144.966 11.8233V9.67798H140.277ZM169.843 8.36008C171.529 8.36008 172.755 7.07288 172.755 5.50983C172.755 3.91613 171.529 2.62891 169.843 2.62891C168.157 2.62891 166.962 3.91613 166.962 5.50983C166.962 7.07288 168.157 8.36008 169.843 8.36008ZM167.483 9.67798V24.4503H172.172V9.67798H167.483ZM183.797 20.8032C182.632 20.8032 181.744 20.4661 181.744 18.2901V13.3864H185.084V9.67798H181.744V5.29529H177.054V9.67798H174.725V13.3864H177.054V19.2708C177.054 24.2051 180.089 24.6955 182.295 24.6955C183.644 24.6955 184.747 24.5729 185.421 24.4503V20.7113C184.992 20.7726 184.379 20.8032 183.797 20.8032ZM193.989 24.8488C196.043 24.8488 197.882 23.8374 198.678 22.3663V24.4503H203.337V2.99669H198.678V11.7927C197.882 10.2909 196.196 9.27958 194.051 9.27958C189.76 9.27958 187.032 12.6508 187.032 17.0642C187.032 21.5081 189.576 24.8488 193.989 24.8488ZM195.338 20.9565C193.162 20.9565 191.813 19.3015 191.813 17.0642C191.813 14.8268 193.162 13.2025 195.338 13.2025C197.667 13.2025 198.862 14.9494 198.862 17.0642C198.862 19.2095 197.667 20.9565 195.338 20.9565Z" fill="#1B1B1E"/>
</svg>
