<svg width="148" height="47" viewBox="0 0 148 47" fill="none" xmlns="http://www.w3.org/2000/svg">
<path d="M10.7293 45.8228C10.3773 45.8228 10.0337 45.8183 9.68445 45.8105C8.96089 45.8011 8.23902 45.7381 7.52476 45.622C6.85875 45.5073 6.21356 45.294 5.61048 44.989C5.01293 44.6865 4.46792 44.2899 3.99632 43.8143C3.5179 43.3444 3.11959 42.7993 2.81717 42.2007C2.51143 41.5983 2.29984 40.9525 2.18977 40.2859C2.0709 39.5697 2.00659 38.8455 1.99738 38.1195C1.99006 37.8758 1.98047 37.0644 1.98047 37.0644V10.3729C1.98047 10.3729 1.99068 9.57404 1.99744 9.33934C2.00625 8.61451 2.07019 7.89139 2.18869 7.17626C2.29897 6.50786 2.51074 5.86023 2.81664 5.25579C3.11794 4.65763 3.51404 4.11216 3.98957 3.64053C4.46459 3.16442 5.01135 2.76577 5.60992 2.45912C6.21161 2.1551 6.85558 1.94324 7.52024 1.83062C8.23685 1.71342 8.96123 1.65006 9.6873 1.64106L10.7299 1.62695H137.381L138.436 1.64163C139.155 1.65018 139.873 1.71298 140.583 1.82949C141.255 1.94352 141.905 2.15686 142.514 2.4625C143.713 3.08049 144.689 4.0582 145.304 5.25861C145.605 5.85887 145.814 6.50122 145.923 7.16385C146.043 7.88485 146.11 8.61365 146.123 9.34442C146.127 9.67165 146.127 10.0231 146.127 10.3729C146.136 10.8062 146.136 11.2186 146.136 11.6344V35.8164C146.136 36.2362 146.136 36.6458 146.127 37.0588C146.127 37.4345 146.127 37.7787 146.122 38.133C146.109 38.8507 146.043 39.5665 145.925 40.2746C145.817 40.946 145.607 41.5968 145.301 42.2042C144.996 42.7963 144.6 43.3366 144.127 43.8053C143.655 44.2834 143.109 44.6824 142.51 44.9868C141.904 45.2941 141.254 45.5083 140.583 45.622C139.869 45.7387 139.147 45.8017 138.423 45.8105C138.085 45.8183 137.731 45.8228 137.387 45.8228L136.134 45.8252L10.7293 45.8228Z" fill="black"/>
<path d="M29.5897 24.0711C29.6021 23.1067 29.8583 22.1611 30.3344 21.3223C30.8105 20.4835 31.491 19.7787 32.3126 19.2736C31.7906 18.5281 31.1021 17.9146 30.3015 17.4819C29.501 17.0491 28.6106 16.8089 27.701 16.7805C25.7607 16.5768 23.8797 17.9415 22.891 17.9415C21.8831 17.9415 20.3608 16.8007 18.7216 16.8344C17.6612 16.8687 16.6279 17.177 15.7221 17.7294C14.8164 18.2818 14.0692 19.0593 13.5533 19.9863C11.3187 23.8553 12.9855 29.5413 15.1261 32.6686C16.1971 34.2 17.4488 35.9106 19.0866 35.8499C20.6893 35.7835 21.2878 34.828 23.2224 34.828C25.139 34.828 25.7006 35.8499 27.3716 35.8114C29.0914 35.7834 30.1749 34.2732 31.2083 32.7273C31.9778 31.6362 32.5699 30.4302 32.9627 29.1541C31.9636 28.7315 31.111 28.0241 30.5112 27.1202C29.9113 26.2163 29.5909 25.1559 29.5897 24.0711Z" fill="white"/>
<path d="M26.4348 14.7237C27.3725 13.598 27.8345 12.1512 27.7226 10.6904C26.29 10.8409 24.9667 11.5256 24.0164 12.608C23.5517 13.1368 23.1959 13.752 22.9691 14.4185C22.7424 15.0849 22.6492 15.7895 22.6949 16.4919C23.4114 16.4993 24.1203 16.344 24.7681 16.0377C25.4159 15.7314 25.9858 15.2821 26.4348 14.7237Z" fill="white"/>
<path d="M42.1688 17.6014V11.6814H40V10.707H45.4038V11.6814H43.2396V17.6014H42.1688Z" fill="white"/>
<path d="M50.3832 16.1973C50.2437 16.6728 49.9414 17.0841 49.5293 17.3593C49.1172 17.6344 48.6214 17.7559 48.1287 17.7025C47.786 17.7115 47.4453 17.6459 47.1305 17.5101C46.8156 17.3743 46.5341 17.1716 46.3054 16.9161C46.0767 16.6606 45.9064 16.3584 45.8062 16.0304C45.706 15.7025 45.6784 15.3567 45.7253 15.017C45.6797 14.6763 45.7078 14.3297 45.8077 14.0008C45.9076 13.6719 46.0771 13.3682 46.3045 13.1105C46.532 12.8527 46.8122 12.6469 47.1261 12.5068C47.4401 12.3668 47.7805 12.2958 48.1242 12.2987C49.5719 12.2987 50.4453 13.2878 50.4453 14.9216V15.2799H46.7713V15.3374C46.7552 15.5283 46.7792 15.7205 46.8418 15.9016C46.9043 16.0828 47.004 16.2488 47.1345 16.3891C47.2649 16.5295 47.4233 16.641 47.5993 16.7166C47.7754 16.7921 47.9653 16.8301 48.1569 16.8279C48.4026 16.8574 48.6514 16.8132 48.8718 16.7009C49.0922 16.5886 49.2743 16.4132 49.3948 16.1972L50.3832 16.1973ZM46.7713 14.5205H49.3993C49.4122 14.3459 49.3885 14.1705 49.3296 14.0056C49.2707 13.8407 49.178 13.6899 49.0574 13.563C48.9368 13.4361 48.791 13.3358 48.6293 13.2685C48.4676 13.2013 48.2936 13.1687 48.1186 13.1727C47.941 13.1704 47.7647 13.2038 47.6002 13.2707C47.4357 13.3377 47.2863 13.4369 47.1607 13.5625C47.0352 13.6881 46.936 13.8376 46.8691 14.0021C46.8023 14.1667 46.769 14.3429 46.7713 14.5205H46.7713ZM47.507 11.5292L48.7065 9.88574H49.9104L48.5677 11.5292H47.507Z" fill="white"/>
<path d="M51.8711 10.3672H52.8979V17.6011H51.8711V10.3672Z" fill="white"/>
<path d="M58.9848 16.1973C58.8453 16.6728 58.543 17.0841 58.1309 17.3593C57.7187 17.6344 57.223 17.7559 56.7303 17.7025C56.3875 17.7115 56.0469 17.6459 55.732 17.5101C55.4172 17.3743 55.1356 17.1716 54.9069 16.9161C54.6783 16.6606 54.5079 16.3584 54.4078 16.0304C54.3076 15.7025 54.28 15.3567 54.3269 15.017C54.2812 14.6763 54.3093 14.3297 54.4093 14.0008C54.5092 13.6719 54.6786 13.3682 54.9061 13.1105C55.1336 12.8527 55.4138 12.6469 55.7277 12.5068C56.0417 12.3668 56.382 12.2958 56.7258 12.2987C58.1735 12.2987 59.0468 13.2878 59.0468 14.9216V15.2799H55.3728V15.3374C55.3568 15.5283 55.3808 15.7205 55.4433 15.9016C55.5058 16.0828 55.6055 16.2488 55.736 16.3891C55.8665 16.5295 56.0248 16.641 56.2009 16.7166C56.377 16.7921 56.5669 16.8301 56.7585 16.8279C57.0041 16.8574 57.2529 16.8132 57.4734 16.7009C57.6938 16.5886 57.8758 16.4132 57.9963 16.1972L58.9848 16.1973ZM55.3728 14.5205H58.0008C58.0138 14.3459 57.99 14.1705 57.9311 14.0056C57.8723 13.8407 57.7795 13.6899 57.6589 13.563C57.5383 13.4361 57.3925 13.3358 57.2308 13.2685C57.0691 13.2013 56.8952 13.1687 56.7201 13.1727C56.5425 13.1704 56.3663 13.2038 56.2018 13.2707C56.0373 13.3377 55.8878 13.4369 55.7623 13.5625C55.6367 13.6881 55.5376 13.8376 55.4707 14.0021C55.4038 14.1667 55.3705 14.3429 55.3728 14.5205ZM56.1085 11.5292L57.308 9.88574H58.512L57.1693 11.5292H56.1085Z" fill="white"/>
<path d="M63.8324 14.1005C63.767 13.8307 63.6071 13.5933 63.3816 13.4312C63.1562 13.2691 62.8802 13.1931 62.6036 13.217C61.7438 13.217 61.218 13.876 61.218 14.9846C61.218 16.1124 61.7484 16.786 62.6036 16.786C62.8775 16.8178 63.1536 16.7483 63.3798 16.5908C63.6061 16.4333 63.7671 16.1986 63.8324 15.9307H64.8311C64.765 16.4576 64.4958 16.9378 64.0807 17.2689C63.6657 17.6001 63.1377 17.756 62.6093 17.7034C62.2614 17.7144 61.9153 17.6492 61.5952 17.5125C61.2752 17.3758 60.9888 17.1707 60.7562 16.9118C60.5237 16.6528 60.3505 16.3462 60.2488 16.0133C60.1471 15.6804 60.1194 15.3293 60.1675 14.9846C60.1218 14.6424 60.1513 14.2944 60.254 13.9648C60.3566 13.6352 60.53 13.332 60.762 13.0763C60.994 12.8207 61.2789 12.6187 61.597 12.4846C61.9151 12.3504 62.2587 12.2873 62.6037 12.2997C63.1363 12.2506 63.6672 12.4113 64.0832 12.7477C64.4991 13.084 64.7675 13.5694 64.8311 14.1005L63.8324 14.1005Z" fill="white"/>
<path d="M66.1915 10.3672H67.2093V13.2344H67.2905C67.427 12.9347 67.6525 12.6845 67.9364 12.5177C68.2203 12.3509 68.5487 12.2757 68.8769 12.3023C69.1288 12.2886 69.3805 12.3307 69.6142 12.4255C69.848 12.5203 70.0579 12.6655 70.229 12.8507C70.4002 13.036 70.5283 13.2568 70.6043 13.4972C70.6804 13.7377 70.7023 13.992 70.6688 14.242V17.6012H69.6408V14.4953C69.6408 13.6643 69.2537 13.2434 68.5283 13.2434C68.3518 13.2289 68.1743 13.2532 68.0081 13.3145C67.842 13.3758 67.6913 13.4726 67.5665 13.5983C67.4417 13.7239 67.3459 13.8753 67.2857 14.0418C67.2256 14.2084 67.2025 14.3861 67.2182 14.5624V17.6011H66.1914L66.1915 10.3672Z" fill="white"/>
<path d="M71.9609 16.1308C71.9609 15.1942 72.6583 14.6543 73.8961 14.5776L75.3054 14.4963V14.0472C75.3054 13.4977 74.9421 13.1874 74.2402 13.1874C73.667 13.1874 73.2698 13.3979 73.1559 13.7657H72.1618C72.2667 12.872 73.1074 12.2988 74.2876 12.2988C75.592 12.2988 76.3271 12.9482 76.3271 14.0472V17.6021H75.3392V16.871H75.2581C75.0932 17.1332 74.8616 17.3471 74.587 17.4906C74.3125 17.6341 74.0047 17.7022 73.6953 17.6879C73.4768 17.7106 73.2561 17.6873 73.0472 17.6195C72.8384 17.5517 72.646 17.4408 72.4826 17.2941C72.3192 17.1474 72.1884 16.9681 72.0985 16.7677C72.0087 16.5673 71.9618 16.3504 71.9609 16.1308ZM75.3054 15.6862V15.2512L74.0349 15.3324C73.3184 15.3804 72.9934 15.6241 72.9934 16.0828C72.9934 16.5511 73.3996 16.8236 73.9582 16.8236C74.1219 16.8401 74.2872 16.8236 74.4443 16.775C74.6015 16.7264 74.7472 16.6466 74.8729 16.5405C74.9986 16.4344 75.1017 16.3041 75.176 16.1573C75.2503 16.0105 75.2943 15.8503 75.3054 15.6862L75.3054 15.6862Z" fill="white"/>
<path d="M77.9375 12.3991H78.9259V13.1968H79.0027C79.1133 12.9199 79.3089 12.6852 79.5613 12.5263C79.8137 12.3675 80.1099 12.2927 80.4075 12.3128C80.5613 12.3107 80.7149 12.3251 80.8656 12.3556V13.369C80.6772 13.3287 80.4851 13.3079 80.2924 13.3069C80.123 13.2917 79.9524 13.3121 79.7914 13.3668C79.6304 13.4214 79.4826 13.5092 79.3575 13.6244C79.2324 13.7396 79.1328 13.8797 79.0651 14.0356C78.9974 14.1916 78.9631 14.36 78.9643 14.53V17.602H77.9375L77.9375 12.3991Z" fill="white"/>
<path d="M81.8069 18.1226H82.8574C82.9443 18.5 83.3787 18.7437 84.0716 18.7437C84.9269 18.7437 85.4335 18.3375 85.4335 17.6498V16.6512H85.3568C85.1957 16.9307 84.9605 17.1603 84.6771 17.3145C84.3938 17.4687 84.0733 17.5416 83.7511 17.5251C82.423 17.5251 81.6016 16.4983 81.6016 14.9406C81.6016 13.3541 82.432 12.3126 83.7613 12.3126C84.0915 12.3011 84.4186 12.3806 84.7067 12.5424C84.9949 12.7042 85.233 12.942 85.3951 13.23H85.4764V12.3989H86.4603V17.6447C86.4603 18.8345 85.5283 19.5894 84.0569 19.5894C82.757 19.5895 81.9164 19.0067 81.8069 18.1226ZM85.4527 14.9355C85.4527 13.8991 84.9167 13.2351 84.0422 13.2351C83.1587 13.2351 82.6622 13.8991 82.6622 14.9355C82.6622 15.9725 83.1587 16.6365 84.0422 16.6365C84.9224 16.6365 85.4527 15.9776 85.4527 14.9355V14.9355Z" fill="white"/>
<path d="M92.4965 16.1965C92.357 16.672 92.0547 17.0833 91.6426 17.3585C91.2305 17.6336 90.7347 17.7551 90.242 17.7017C89.8992 17.7107 89.5586 17.6451 89.2437 17.5093C88.9289 17.3735 88.6473 17.1708 88.4187 16.9153C88.19 16.6598 88.0197 16.3576 87.9195 16.0296C87.8193 15.7017 87.7917 15.3559 87.8386 15.0162C87.7929 14.6755 87.821 14.3289 87.921 14C88.0209 13.671 88.1903 13.3674 88.4178 13.1097C88.6453 12.8519 88.9255 12.6461 89.2394 12.506C89.5534 12.366 89.8937 12.295 90.2375 12.2979C91.6852 12.2979 92.5586 13.287 92.5586 14.9208V15.2791H88.8846V15.3366C88.8685 15.5275 88.8925 15.7197 88.9551 15.9008C89.0176 16.082 89.1173 16.248 89.2478 16.3883C89.3782 16.5287 89.5365 16.6402 89.7126 16.7158C89.8887 16.7913 90.0786 16.8293 90.2702 16.8271C90.5159 16.8566 90.7647 16.8124 90.9851 16.7001C91.2055 16.5878 91.3876 16.4124 91.5081 16.1964L92.4965 16.1965ZM88.8846 14.5197H91.5125C91.5255 14.3451 91.5017 14.1697 91.4429 14.0048C91.384 13.8399 91.2913 13.6891 91.1706 13.5622C91.05 13.4352 90.9042 13.3349 90.7425 13.2677C90.5808 13.2005 90.4069 13.1679 90.2318 13.1719C90.0542 13.1696 89.878 13.203 89.7135 13.2699C89.549 13.3369 89.3996 13.4361 89.274 13.5617C89.1485 13.6873 89.0493 13.8368 88.9824 14.0013C88.9156 14.1659 88.8823 14.3421 88.8846 14.5197H88.8846Z" fill="white"/>
<path d="M93.9375 12.3991H94.926V13.1968H95.0027C95.1134 12.9199 95.309 12.6852 95.5614 12.5263C95.8138 12.3675 96.11 12.2927 96.4076 12.3128C96.5614 12.3107 96.7149 12.3251 96.8657 12.3556V13.369C96.6772 13.3287 96.4852 13.3079 96.2925 13.3069C96.1231 13.2917 95.9524 13.3121 95.7914 13.3667C95.6304 13.4214 95.4826 13.5092 95.3575 13.6244C95.2324 13.7395 95.1328 13.8796 95.0651 14.0356C94.9974 14.1916 94.9631 14.36 94.9643 14.53V17.602H93.9375V12.3991Z" fill="white"/>
<path d="M100.566 14.9974C100.566 13.3534 101.412 12.3119 102.726 12.3119C103.051 12.2969 103.374 12.3748 103.657 12.5365C103.939 12.6981 104.17 12.9368 104.322 13.2247H104.398V10.3672H105.425V17.6011H104.441V16.7791H104.36C104.196 17.0651 103.958 17.3008 103.67 17.4609C103.382 17.6209 103.055 17.699 102.726 17.6869C101.403 17.6869 100.566 16.6454 100.566 14.9974ZM101.627 14.9974C101.627 16.101 102.147 16.765 103.017 16.765C103.883 16.765 104.418 16.0914 104.418 15.002C104.418 13.9176 103.877 13.2344 103.017 13.2344C102.153 13.2344 101.627 13.903 101.627 14.9974H101.627Z" fill="white"/>
<path d="M106.812 16.1308C106.812 15.1942 107.51 14.6543 108.748 14.5776L110.157 14.4963V14.0472C110.157 13.4977 109.794 13.1874 109.092 13.1874C108.519 13.1874 108.121 13.3979 108.007 13.7657H107.013C107.118 12.872 107.959 12.2988 109.139 12.2988C110.444 12.2988 111.179 12.9482 111.179 14.0472V17.6022H110.191V16.871H110.11C109.945 17.1332 109.713 17.3471 109.439 17.4906C109.164 17.6341 108.856 17.7022 108.547 17.6879C108.328 17.7106 108.108 17.6873 107.899 17.6195C107.69 17.5516 107.498 17.4408 107.334 17.2941C107.171 17.1474 107.04 16.9681 106.95 16.7677C106.86 16.5673 106.813 16.3504 106.812 16.1308ZM110.157 15.6862V15.2512L108.886 15.3324C108.17 15.3804 107.845 15.6241 107.845 16.0828C107.845 16.5511 108.251 16.8236 108.81 16.8236C108.973 16.8401 109.139 16.8236 109.296 16.775C109.453 16.7263 109.599 16.6466 109.724 16.5405C109.85 16.4344 109.953 16.304 110.028 16.1573C110.102 16.0105 110.146 15.8503 110.157 15.6862V15.6862Z" fill="white"/>
<path d="M112.785 12.3995H113.774V13.226H113.85C113.981 12.9292 114.2 12.6803 114.478 12.5142C114.757 12.348 115.08 12.2728 115.403 12.2991C115.656 12.28 115.91 12.3182 116.147 12.4108C116.383 12.5033 116.596 12.6478 116.769 12.8337C116.942 13.0195 117.071 13.2419 117.146 13.4844C117.221 13.7268 117.241 13.9831 117.204 14.2342V17.6023H116.177V14.4921C116.177 13.6559 115.814 13.2401 115.054 13.2401C114.882 13.2321 114.711 13.2614 114.551 13.3259C114.392 13.3904 114.248 13.4886 114.13 13.6139C114.012 13.7391 113.923 13.8884 113.868 14.0514C113.813 14.2145 113.794 14.3875 113.812 14.5586V17.6024H112.785V12.3995Z" fill="white"/>
<path d="M120.694 12.2988C121.864 12.2988 122.629 12.8433 122.73 13.7606H121.745C121.65 13.3787 121.276 13.135 120.694 13.135C120.121 13.135 119.686 13.4069 119.686 13.8131C119.686 14.1239 119.948 14.3197 120.513 14.4489L121.377 14.6492C122.366 14.8788 122.83 15.3042 122.83 16.0687C122.83 17.0481 121.917 17.7026 120.675 17.7026C119.437 17.7026 118.63 17.1435 118.539 16.2216H119.567C119.656 16.441 119.815 16.6243 120.021 16.7421C120.226 16.8598 120.465 16.9052 120.699 16.871C121.339 16.871 121.793 16.5844 121.793 16.1686C121.793 15.8583 121.55 15.6574 121.028 15.5333L120.121 15.3228C119.131 15.0887 118.673 14.6447 118.673 13.8706C118.673 12.9482 119.518 12.2988 120.694 12.2988Z" fill="white"/>
<path d="M41.6445 21.4912H43.7929V35.8401H41.6445V21.4912Z" fill="white"/>
<path d="M46.3828 26.7415L47.5563 21.4912H49.6438L48.2221 26.7415H46.3828Z" fill="white"/>
<path d="M57.7593 31.9619H52.2901L50.9767 35.8401H48.6602L53.8405 21.4912H56.2473L61.4276 35.8401H59.0716L57.7593 31.9619ZM52.8566 30.1723H57.1918L55.0547 23.8777H54.9949L52.8566 30.1723Z" fill="white"/>
<path d="M72.6158 30.6087C72.6158 33.8595 70.8758 35.9481 68.2501 35.9481C67.585 35.9829 66.9235 35.8297 66.3414 35.506C65.7593 35.1824 65.2801 34.7013 64.9587 34.1179H64.909V39.2994H62.7617V25.377H64.8402V27.117H64.8797C65.2158 26.5364 65.7031 26.0578 66.2897 25.7321C66.8762 25.4065 67.5401 25.2459 68.2106 25.2676C70.8657 25.2676 72.6158 27.3663 72.6158 30.6087ZM70.4087 30.6087C70.4087 28.4902 69.3142 27.0978 67.6442 27.0978C66.0035 27.0978 64.9 28.5195 64.9 30.6087C64.9 32.7165 66.0035 34.1281 67.6442 34.1281C69.3142 34.1281 70.4087 32.7458 70.4087 30.6087Z" fill="white"/>
<path d="M84.1269 30.6087C84.1269 33.8595 82.387 35.9481 79.7613 35.9481C79.0961 35.9829 78.4346 35.8297 77.8525 35.506C77.2704 35.1824 76.7912 34.7013 76.4698 34.1179H76.4201V39.2994H74.2734V25.377H76.3513V27.117H76.3908C76.727 26.5364 77.2143 26.0578 77.8009 25.7321C78.3874 25.4065 79.0512 25.2459 79.7218 25.2676C82.3768 25.2676 84.1269 27.3663 84.1269 30.6087ZM81.9198 30.6087C81.9198 28.4902 80.8253 27.0978 79.1553 27.0978C77.5147 27.0978 76.4111 28.5195 76.4111 30.6087C76.4111 32.7165 77.5147 34.1281 79.1553 34.1281C80.8253 34.1281 81.9198 32.7458 81.9198 30.6087Z" fill="white"/>
<path d="M91.7371 31.8413C91.8962 33.2641 93.2785 34.1984 95.1674 34.1984C96.9773 34.1984 98.2794 33.2641 98.2794 31.9811C98.2794 30.8674 97.4941 30.2006 95.6345 29.7436L93.775 29.2951C91.1402 28.6587 89.917 27.4265 89.917 25.4271C89.917 22.9514 92.0745 21.251 95.138 21.251C98.1699 21.251 100.248 22.9514 100.318 25.4271H98.1508C98.021 23.9952 96.8373 23.1308 95.1076 23.1308C93.3778 23.1308 92.1941 24.0053 92.1941 25.2781C92.1941 26.2925 92.9501 26.8894 94.7995 27.3464L96.3804 27.7345C99.3243 28.4307 100.547 29.6138 100.547 31.7126C100.547 34.397 98.4092 36.0783 95.0083 36.0783C91.8263 36.0783 89.6779 34.4365 89.5391 31.8412L91.7371 31.8413Z" fill="white"/>
<path d="M105.186 22.9023V25.378H107.176V27.0784H105.186V32.8461C105.186 33.742 105.585 34.1595 106.459 34.1595C106.695 34.1554 106.931 34.1388 107.165 34.1098V35.8001C106.772 35.8736 106.373 35.9068 105.973 35.8994C103.855 35.8994 103.029 35.1039 103.029 33.0751V27.0784H101.508V25.378H103.029V22.9023H105.186Z" fill="white"/>
<path d="M108.324 30.6093C108.324 27.3173 110.263 25.249 113.286 25.249C116.319 25.249 118.248 27.3173 118.248 30.6093C118.248 33.9098 116.329 35.9691 113.286 35.9691C110.244 35.9691 108.324 33.9098 108.324 30.6093ZM116.06 30.6093C116.06 28.3509 115.026 27.0183 113.286 27.0183C111.546 27.0183 110.512 28.3611 110.512 30.6093C110.512 32.8762 111.546 34.1987 113.286 34.1987C115.026 34.1987 116.06 32.8762 116.06 30.6093H116.06Z" fill="white"/>
<path d="M120.02 25.3769H122.068V27.1575H122.117C122.256 26.6014 122.582 26.1099 123.04 25.7657C123.498 25.4215 124.061 25.2456 124.633 25.2674C124.881 25.2666 125.128 25.2935 125.369 25.3476V27.356C125.057 27.2606 124.731 27.2167 124.404 27.2263C124.092 27.2136 123.781 27.2687 123.493 27.3876C123.204 27.5065 122.944 27.6865 122.732 27.9152C122.519 28.1439 122.359 28.4159 122.261 28.7126C122.164 29.0092 122.131 29.3234 122.167 29.6336V35.8385H120.02L120.02 25.3769Z" fill="white"/>
<path d="M135.269 32.7668C134.98 34.6658 133.13 35.9691 130.764 35.9691C127.721 35.9691 125.832 33.9301 125.832 30.659C125.832 27.3771 127.731 25.249 130.674 25.249C133.568 25.249 135.388 27.2372 135.388 30.4096V31.1453H128V31.2751C127.966 31.6601 128.014 32.0479 128.141 32.4128C128.268 32.7778 128.472 33.1115 128.738 33.3917C129.004 33.672 129.327 33.8924 129.685 34.0383C130.043 34.1843 130.428 34.2524 130.814 34.2382C131.321 34.2857 131.83 34.1682 132.266 33.9031C132.701 33.638 133.039 33.2394 133.23 32.7668L135.269 32.7668ZM128.01 29.6446H133.24C133.259 29.2983 133.207 28.9519 133.086 28.6269C132.965 28.3019 132.778 28.0054 132.537 27.7561C132.296 27.5067 132.006 27.3099 131.686 27.1778C131.365 27.0458 131.021 26.9815 130.674 26.9889C130.324 26.9869 129.977 27.0541 129.654 27.1867C129.33 27.3193 129.036 27.5147 128.788 27.7616C128.541 28.0085 128.344 28.302 128.211 28.6252C128.077 28.9484 128.009 29.2948 128.01 29.6446Z" fill="white"/>
</svg>
